<svg width="125" height="31" viewBox="0 0 125 31" fill="none" xmlns="http://www.w3.org/2000/svg">
<path d="M14.7848 27.6795C14.7848 28.1652 14.6102 28.5426 14.2646 28.8134C13.9172 29.0843 13.4451 29.2215 12.8518 29.2215C12.2069 29.2215 11.7117 29.1366 11.3643 28.9687V28.3512C11.5869 28.4469 11.831 28.5227 12.0929 28.5769C12.3566 28.6311 12.6149 28.66 12.8732 28.66C13.2954 28.66 13.6126 28.5787 13.8246 28.4162C14.0383 28.2537 14.1452 28.028 14.1452 27.7391C14.1452 27.5477 14.1078 27.3924 14.0312 27.2697C13.9546 27.1487 13.8299 27.0367 13.6517 26.932C13.4754 26.8291 13.2046 26.7117 12.8429 26.5817C12.337 26.3976 11.9753 26.1809 11.758 25.9299C11.5424 25.6789 11.4337 25.3503 11.4337 24.9459C11.4337 24.5216 11.5905 24.1839 11.9058 23.9311C12.2212 23.6802 12.6363 23.5538 13.1547 23.5538C13.6731 23.5538 14.1915 23.6531 14.6458 23.8553L14.4481 24.4132C13.9991 24.2218 13.5645 24.1261 13.1404 24.1261C12.8055 24.1261 12.5436 24.1984 12.3548 24.3446C12.1659 24.4909 12.0715 24.6931 12.0715 24.9513C12.0715 25.1427 12.1072 25.298 12.1766 25.4207C12.2461 25.5417 12.3619 25.6537 12.5276 25.7566C12.6933 25.8577 12.9445 25.9714 13.2847 26.0942C13.8548 26.3001 14.2468 26.5221 14.4623 26.7587C14.6761 26.9952 14.7848 27.3003 14.7848 27.6777V27.6795Z" fill="#666666"/>
<path d="M20.9988 29.1457V26.459C20.9988 26.1303 20.9294 25.883 20.7904 25.7187C20.6514 25.5544 20.4359 25.4713 20.1437 25.4713C19.7589 25.4713 19.4756 25.5833 19.2921 25.8071C19.1086 26.031 19.016 26.3741 19.016 26.8399V29.1457H18.3996V26.459C18.3996 26.1303 18.3301 25.883 18.1911 25.7187C18.0522 25.5544 17.8348 25.4713 17.5409 25.4713C17.1543 25.4713 16.871 25.5887 16.6911 25.8234C16.5112 26.0581 16.4221 26.4427 16.4221 26.979V29.1457H15.8057V25.0145H16.3081L16.4078 25.5796H16.4381C16.5557 25.3792 16.7196 25.2221 16.9298 25.1084C17.1418 24.9964 17.3788 24.9387 17.6424 24.9387C18.2802 24.9387 18.6971 25.1716 18.8913 25.6392H18.9216C19.0427 25.4226 19.2191 25.2528 19.4507 25.1264C19.6805 25.0001 19.9442 24.9387 20.2399 24.9387C20.7013 24.9387 21.0469 25.0596 21.275 25.298C21.5048 25.5381 21.6188 25.9209 21.6188 26.4499V29.1457H21.0024H20.9988Z" fill="#666666"/>
<path d="M25.3938 29.1456L25.2709 28.557H25.2406C25.0375 28.8152 24.8344 28.9904 24.6331 29.0824C24.4318 29.1745 24.1788 29.2197 23.8759 29.2197C23.4715 29.2197 23.1544 29.1131 22.9264 28.9037C22.6965 28.6924 22.5825 28.3927 22.5825 28.0027C22.5825 27.1685 23.2399 26.7316 24.5565 26.6919L25.2477 26.6702V26.4138C25.2477 26.0888 25.1782 25.8505 25.041 25.6952C24.9039 25.5399 24.6829 25.4623 24.3819 25.4623C24.0416 25.4623 23.6586 25.5688 23.2292 25.7782L23.0404 25.2998C23.2399 25.1896 23.4608 25.1029 23.6995 25.0397C23.9383 24.9766 24.1788 24.9459 24.4193 24.9459C24.9039 24.9459 25.2655 25.0542 25.4989 25.2745C25.7323 25.493 25.8499 25.8432 25.8499 26.3253V29.1456H25.392H25.3938ZM23.9988 28.7051C24.3836 28.7051 24.6847 28.5985 24.9039 28.3837C25.123 28.1706 25.2334 27.8709 25.2334 27.4863V27.1126L24.6152 27.1396C24.1235 27.1577 23.7708 27.2353 23.5535 27.3708C23.3361 27.508 23.2274 27.721 23.2274 28.0099C23.2274 28.2356 23.2951 28.409 23.4305 28.5263C23.5659 28.6437 23.7548 28.7033 23.9971 28.7033L23.9988 28.7051Z" fill="#666666"/>
<path d="M27.7403 29.1457H27.1221V23.2811H27.7403V29.1457Z" fill="#666666"/>
<path d="M29.6677 29.1457H29.0513V23.2811H29.6677V29.1457Z" fill="#666666"/>
<path d="M35.4399 26.2585H37.2891V28.938C37.0005 29.0301 36.7101 29.1005 36.4108 29.1493C36.1133 29.198 35.7677 29.2215 35.3775 29.2215C34.5545 29.2215 33.9131 28.9723 33.4552 28.4776C32.9974 27.981 32.7676 27.2859 32.7676 26.3921C32.7676 25.8198 32.8816 25.3178 33.1079 24.8863C33.3341 24.4547 33.6619 24.1261 34.0877 23.8986C34.5153 23.6711 35.0141 23.5574 35.586 23.5574C36.1578 23.5574 36.7065 23.6657 37.2072 23.8806L36.9613 24.4457C36.4696 24.2345 35.9975 24.1297 35.545 24.1297C34.8823 24.1297 34.3656 24.3302 33.9933 24.7292C33.6209 25.1282 33.4357 25.6825 33.4357 26.3921C33.4357 27.136 33.6156 27.6994 33.9737 28.084C34.3318 28.4685 34.8573 28.6599 35.5521 28.6599C35.9298 28.6599 36.2968 28.6166 36.6567 28.5281V26.8327H35.4399V26.2603V26.2585Z" fill="#666666"/>
<path d="M40.2216 29.2197C39.6195 29.2197 39.1438 29.0337 38.7964 28.6617C38.4472 28.2898 38.2744 27.7734 38.2744 27.1126C38.2744 26.4517 38.4365 25.9173 38.759 25.5254C39.0832 25.1336 39.5179 24.9368 40.0631 24.9368C40.5744 24.9368 40.977 25.1066 41.2763 25.4478C41.5738 25.7891 41.7217 26.2368 41.7217 26.7948V27.1902H38.914C38.9265 27.6759 39.0476 28.0424 39.2756 28.2952C39.5055 28.5462 39.8279 28.6726 40.2448 28.6726C40.683 28.6726 41.1177 28.5787 41.5453 28.3927V28.9506C41.3262 29.0463 41.1213 29.1149 40.9253 29.1565C40.7311 29.198 40.496 29.2197 40.2198 29.2197H40.2216ZM40.0542 25.4623C39.7281 25.4623 39.4663 25.5706 39.2721 25.7873C39.0779 26.0039 38.9639 26.3018 38.9282 26.6846H41.059C41.059 26.2892 40.9717 25.9877 40.7988 25.7782C40.626 25.5688 40.3766 25.4641 40.0542 25.4641V25.4623Z" fill="#666666"/>
<path d="M45.4022 28.0171C45.4022 28.4017 45.2614 28.6979 44.9782 28.9073C44.6949 29.1167 44.2994 29.2197 43.7881 29.2197C43.2465 29.2197 42.8261 29.133 42.5232 28.9597V28.3801C42.7192 28.4812 42.9294 28.5606 43.1539 28.6184C43.3783 28.6762 43.5939 28.7051 43.8024 28.7051C44.1248 28.7051 44.3724 28.6527 44.5453 28.548C44.7181 28.4433 44.8054 28.2844 44.8054 28.0713C44.8054 27.9106 44.7359 27.7734 44.5987 27.6578C44.4615 27.5441 44.1925 27.4087 43.7934 27.2534C43.414 27.1107 43.145 26.9844 42.9846 26.8778C42.8243 26.7713 42.7049 26.6503 42.6265 26.5131C42.5482 26.3777 42.5107 26.2152 42.5107 26.0274C42.5107 25.6898 42.6461 25.4243 42.9169 25.2293C43.1859 25.0343 43.5565 24.9368 44.0286 24.9368C44.4669 24.9368 44.8962 25.0271 45.3149 25.2077L45.0957 25.7168C44.686 25.5471 44.3154 25.4604 43.9841 25.4604C43.6919 25.4604 43.471 25.5074 43.3231 25.5995C43.1753 25.6916 43.1004 25.8216 43.1004 25.9841C43.1004 26.0942 43.1272 26.1881 43.1842 26.2675C43.2394 26.3452 43.3302 26.4192 43.4532 26.4896C43.5761 26.56 43.8148 26.6612 44.1676 26.7948C44.6504 26.9735 44.9782 27.1523 45.1474 27.3328C45.3167 27.5134 45.4022 27.7409 45.4022 28.0153V28.0171Z" fill="#666666"/>
<path d="M47.7235 28.7033C47.8322 28.7033 47.9391 28.6943 48.0389 28.678C48.1404 28.6618 48.2206 28.6455 48.2812 28.6275V29.106C48.2135 29.1385 48.1155 29.1655 47.9854 29.1872C47.8554 29.2089 47.7378 29.2197 47.6345 29.2197C46.847 29.2197 46.4515 28.799 46.4515 27.9576V25.5002H45.8672V25.1987L46.4515 24.9387L46.7116 24.0576H47.0679V25.0145H48.2509V25.5002H47.0679V27.9305C47.0679 28.1797 47.1267 28.3711 47.2443 28.5029C47.3601 28.6365 47.5205 28.7033 47.7235 28.7033Z" fill="#666666"/>
<path d="M49.6759 25.0145V27.6939C49.6759 28.0298 49.7507 28.2808 49.9022 28.4469C50.0536 28.613 50.2906 28.696 50.613 28.696C51.0406 28.696 51.3523 28.5787 51.5483 28.3422C51.7461 28.1056 51.8441 27.7192 51.8441 27.1848V25.0145H52.4605V29.1456H51.9509L51.8619 28.5913H51.828C51.7015 28.7954 51.5252 28.9506 51.3007 29.059C51.0762 29.1673 50.8197 29.2215 50.5328 29.2215C50.0358 29.2215 49.6652 29.1023 49.4194 28.864C49.1718 28.6256 49.0488 28.2428 49.0488 27.7192V25.0163H49.6741L49.6759 25.0145Z" fill="#666666"/>
<path d="M55.6301 24.9387C55.8118 24.9387 55.9739 24.9531 56.1165 24.9838L56.031 25.5634C55.8617 25.5255 55.7138 25.5074 55.5856 25.5074C55.256 25.5074 54.9727 25.6428 54.7393 25.9137C54.5042 26.1845 54.3884 26.5222 54.3884 26.9284V29.1439H53.772V25.0127H54.2815L54.3528 25.7783H54.383C54.5345 25.5092 54.718 25.3016 54.93 25.1571C55.1438 25.0109 55.3771 24.9387 55.6337 24.9387H55.6301Z" fill="#666666"/>
<path d="M58.6015 29.2197C57.9994 29.2197 57.5237 29.0337 57.1763 28.6617C56.8271 28.2898 56.6543 27.7734 56.6543 27.1126C56.6543 26.4517 56.8164 25.9173 57.1389 25.5254C57.4631 25.1336 57.8978 24.9368 58.443 24.9368C58.9543 24.9368 59.3587 25.1066 59.6544 25.4478C59.9519 25.7891 60.1016 26.2368 60.1016 26.7948V27.1902H57.2939C57.3063 27.6759 57.4275 28.0424 57.6573 28.2952C57.8871 28.5462 58.2096 28.6726 58.6264 28.6726C59.0647 28.6726 59.4994 28.5787 59.927 28.3927V28.9506C59.7078 29.0463 59.503 29.1149 59.307 29.1565C59.1128 29.198 58.8776 29.2197 58.6015 29.2197ZM58.434 25.4623C58.1062 25.4623 57.8461 25.5706 57.652 25.7873C57.4578 26.0039 57.3437 26.3018 57.3081 26.6846H59.4388C59.4388 26.2892 59.3515 25.9877 59.1787 25.7782C59.0059 25.5688 58.7583 25.4641 58.4358 25.4641L58.434 25.4623Z" fill="#666666"/>
<path d="M63.7822 28.0171C63.7822 28.4017 63.6415 28.6979 63.3582 28.9073C63.075 29.1167 62.6795 29.2197 62.1682 29.2197C61.6266 29.2197 61.2061 29.133 60.9033 28.9597V28.3801C61.0992 28.4812 61.3095 28.5606 61.5339 28.6184C61.7584 28.6762 61.9758 28.7051 62.1824 28.7051C62.5049 28.7051 62.7525 28.6527 62.9271 28.548C63.0999 28.4433 63.1872 28.2844 63.1872 28.0713C63.1872 27.9106 63.1195 27.7734 62.9805 27.6578C62.8434 27.5441 62.5743 27.4087 62.1753 27.2534C61.7958 27.1107 61.5268 26.9844 61.3665 26.8778C61.2061 26.7713 61.0868 26.6503 61.0102 26.5131C60.9318 26.3777 60.8926 26.2152 60.8926 26.0274C60.8926 25.6898 61.028 25.4243 61.2988 25.2293C61.5696 25.0343 61.9401 24.9368 62.4104 24.9368C62.8487 24.9368 63.2781 25.0271 63.6967 25.2077L63.4776 25.7168C63.0678 25.5471 62.6973 25.4604 62.3659 25.4604C62.072 25.4604 61.8528 25.5074 61.7032 25.5995C61.5553 25.6916 61.4805 25.8216 61.4805 25.9841C61.4805 26.0942 61.5072 26.1881 61.5642 26.2675C61.6194 26.3452 61.7103 26.4192 61.8332 26.4896C61.9579 26.56 62.1949 26.6612 62.5476 26.7948C63.0304 26.9735 63.3582 27.1523 63.5275 27.3328C63.6967 27.5134 63.7822 27.7409 63.7822 28.0153V28.0171Z" fill="#666666"/>
<path d="M65.4337 28.2483L65.4889 28.335C65.4248 28.5859 65.3321 28.8784 65.2092 29.2107C65.088 29.5429 64.9616 29.8535 64.8297 30.1405H64.3647C64.4324 29.8787 64.5055 29.5555 64.5857 29.1709C64.6658 28.7864 64.7228 28.4794 64.7549 28.2483H65.4319H65.4337Z" fill="#666666"/>
<path d="M68.7241 23.635H70.2598C70.9813 23.635 71.5033 23.7433 71.8258 23.9636C72.1482 24.1821 72.3103 24.527 72.3103 25C72.3103 25.3268 72.2213 25.5959 72.0413 25.8089C71.8614 26.022 71.5995 26.1592 71.2557 26.2224V26.2603C72.0805 26.403 72.4938 26.8435 72.4938 27.5784C72.4938 28.0713 72.3299 28.4559 72.0004 28.7322C71.6708 29.0084 71.2129 29.1474 70.6232 29.1474H68.7259V23.6368L68.7241 23.635ZM69.3566 25.9949H70.3988C70.8441 25.9949 71.1666 25.9245 71.3626 25.7818C71.5585 25.6392 71.6565 25.4009 71.6565 25.0632C71.6565 24.7545 71.5478 24.5324 71.3287 24.3952C71.1096 24.2579 70.764 24.1893 70.2883 24.1893H69.3583V25.9949H69.3566ZM69.3566 26.5384V28.6004H70.4914C70.9297 28.6004 71.261 28.5137 71.4819 28.3422C71.7028 28.1688 71.8151 27.8998 71.8151 27.5333C71.8151 27.192 71.7011 26.941 71.4748 26.7803C71.2486 26.6196 70.9029 26.5384 70.4397 26.5384H69.3583H69.3566Z" fill="#666666"/>
<path d="M73.5146 23.895C73.5146 23.7524 73.5485 23.6477 73.618 23.5809C73.6875 23.5141 73.7748 23.4816 73.8781 23.4816C73.9814 23.4816 74.0634 23.5159 74.1346 23.5827C74.2059 23.6513 74.2415 23.7542 74.2415 23.895C74.2415 24.0359 74.2059 24.1406 74.1346 24.2092C74.0616 24.2778 73.9778 24.3121 73.8781 24.3121C73.7748 24.3121 73.6875 24.2778 73.618 24.2092C73.5485 24.1406 73.5146 24.0359 73.5146 23.895ZM74.1845 29.1457H73.5663V25.0145H74.1845V29.1457Z" fill="#666666"/>
<path d="M78.8292 25.0145V25.4099L78.0756 25.5002C78.1451 25.5886 78.2075 25.7024 78.2609 25.845C78.3162 25.9877 78.3429 26.1466 78.3429 26.3253C78.3429 26.7298 78.2057 27.053 77.9331 27.2931C77.6588 27.5351 77.2864 27.656 76.809 27.656C76.6878 27.656 76.5738 27.647 76.4669 27.6253C76.205 27.7662 76.0732 27.9431 76.0732 28.1562C76.0732 28.2699 76.1195 28.353 76.2104 28.4072C76.303 28.4613 76.4598 28.4884 76.6825 28.4884H77.404C77.8458 28.4884 78.1843 28.5823 78.4213 28.7719C78.6582 28.9597 78.7758 29.2341 78.7758 29.5934C78.7758 30.0502 78.5941 30.3987 78.2324 30.6389C77.8708 30.879 77.3417 30.9982 76.6486 30.9982C76.116 30.9982 75.7044 30.8989 75.4158 30.6966C75.1272 30.4962 74.9829 30.2109 74.9829 29.8444C74.9829 29.5934 75.0631 29.3749 75.2216 29.1926C75.3802 29.0102 75.6047 28.8856 75.8915 28.8188C75.7864 28.7719 75.6991 28.6979 75.6296 28.5967C75.5583 28.4956 75.5245 28.3801 75.5245 28.2465C75.5245 28.0948 75.5637 27.963 75.6439 27.851C75.724 27.7373 75.8487 27.6289 76.0198 27.5224C75.8095 27.4339 75.6367 27.2859 75.5049 27.0746C75.3731 26.8634 75.3054 26.6214 75.3054 26.3506C75.3054 25.8992 75.439 25.5489 75.7062 25.3052C75.9734 25.0596 76.3529 24.9368 76.8446 24.9368C77.0584 24.9368 77.2508 24.9621 77.4218 25.0127H78.831L78.8292 25.0145ZM75.5797 29.839C75.5797 30.0629 75.6724 30.2326 75.8576 30.3482C76.0429 30.4637 76.3102 30.5215 76.6575 30.5215C77.176 30.5215 77.559 30.4438 77.8084 30.2868C78.0578 30.1297 78.1825 29.9166 78.1825 29.6476C78.1825 29.4237 78.1131 29.2684 77.9777 29.1817C77.8405 29.0951 77.5839 29.0517 77.208 29.0517H76.4687C76.189 29.0517 75.9699 29.1204 75.8149 29.2558C75.6581 29.3912 75.5815 29.5862 75.5815 29.839H75.5797ZM75.9146 26.338C75.9146 26.6269 75.9948 26.8453 76.1569 26.9934C76.3191 27.1414 76.5435 27.2155 76.8304 27.2155C77.4325 27.2155 77.7336 26.9194 77.7336 26.3253C77.7336 25.7313 77.429 25.3954 76.8179 25.3954C76.5275 25.3954 76.3048 25.4749 76.148 25.632C75.9913 25.7909 75.9129 26.0256 75.9129 26.3362L75.9146 26.338Z" fill="#666666"/>
<path d="M81.7363 29.1456V23.635H82.3688V29.1456H81.7363Z" fill="#666666"/>
<path d="M88.9645 29.1457V26.459C88.9645 26.1303 88.895 25.883 88.756 25.7187C88.6171 25.5544 88.4015 25.4713 88.1093 25.4713C87.7245 25.4713 87.4413 25.5833 87.2578 25.8071C87.0743 26.031 86.9816 26.3741 86.9816 26.8399V29.1457H86.3652V26.459C86.3652 26.1303 86.2957 25.883 86.1568 25.7187C86.0178 25.5544 85.8005 25.4713 85.5065 25.4713C85.1199 25.4713 84.8367 25.5887 84.6567 25.8234C84.4768 26.0581 84.3877 26.4427 84.3877 26.979V29.1457H83.7695V25.0145H84.2719L84.3717 25.5796H84.402C84.5196 25.3792 84.6835 25.2221 84.8955 25.1084C85.1075 24.9964 85.3444 24.9387 85.6081 24.9387C86.2459 24.9387 86.661 25.1716 86.8569 25.6392H86.8854C87.0066 25.4226 87.183 25.2528 87.4146 25.1264C87.6444 25.0001 87.908 24.9387 88.202 24.9387C88.6634 24.9387 89.009 25.0596 89.2371 25.298C89.4669 25.5381 89.5809 25.9209 89.5809 26.4499V29.1457H88.9645Z" fill="#666666"/>
<path d="M92.75 29.2197C92.4846 29.2197 92.2423 29.1691 92.0232 29.0716C91.804 28.9723 91.6205 28.8207 91.4709 28.613H91.4264C91.4549 28.855 91.4709 29.0825 91.4709 29.2991V30.9982H90.8545V25.0127H91.3569L91.4424 25.5778H91.4709C91.6295 25.3521 91.8147 25.1878 92.025 25.0885C92.2352 24.9874 92.4775 24.9387 92.75 24.9387C93.2916 24.9387 93.7085 25.1264 94.0007 25.5002C94.2946 25.874 94.4407 26.3994 94.4407 27.0747C94.4407 27.7499 94.2911 28.2808 93.9918 28.6564C93.6943 29.0319 93.2792 29.2197 92.7483 29.2197H92.75ZM92.661 25.4695C92.2441 25.4695 91.943 25.5869 91.7577 25.8198C91.5724 26.0527 91.4762 26.4247 91.4709 26.9356V27.0747C91.4709 27.6543 91.5671 28.0695 91.7577 28.3205C91.9483 28.5697 92.2548 28.6961 92.677 28.6961C93.0297 28.6961 93.3041 28.5516 93.5036 28.2627C93.7032 27.9738 93.8029 27.5748 93.8029 27.0674C93.8029 26.5601 93.7032 26.1574 93.5036 25.8812C93.3041 25.6067 93.0244 25.4677 92.661 25.4677V25.4695Z" fill="#666666"/>
<path d="M97.3801 24.9387C97.5618 24.9387 97.724 24.9531 97.8665 24.9838L97.781 25.5634C97.6117 25.5255 97.4638 25.5074 97.3356 25.5074C97.006 25.5074 96.7245 25.6428 96.4893 25.9137C96.2542 26.1845 96.1384 26.5222 96.1384 26.9284V29.1439H95.522V25.0127H96.0315L96.1028 25.7783H96.133C96.2845 25.5092 96.4662 25.3016 96.68 25.1571C96.892 25.0109 97.1271 24.9387 97.3819 24.9387H97.3801Z" fill="#666666"/>
<path d="M100.35 29.2197C99.7479 29.2197 99.2722 29.0337 98.9248 28.6617C98.5774 28.2898 98.4028 27.7734 98.4028 27.1126C98.4028 26.4517 98.565 25.9173 98.8874 25.5254C99.2117 25.1336 99.6446 24.9368 100.191 24.9368C100.703 24.9368 101.105 25.1066 101.403 25.4478C101.7 25.7891 101.848 26.2368 101.848 26.7948V27.1902H99.0406C99.0531 27.6759 99.1742 28.0424 99.4023 28.2952C99.6321 28.5462 99.9546 28.6726 100.371 28.6726C100.81 28.6726 101.244 28.5787 101.674 28.3927V28.9506C101.456 29.0463 101.25 29.1149 101.054 29.1565C100.86 29.198 100.624 29.2197 100.348 29.2197H100.35ZM100.183 25.4623C99.8548 25.4623 99.5947 25.5706 99.4005 25.7873C99.2063 26.0039 99.0905 26.3018 99.0567 26.6846H101.187C101.187 26.2892 101.1 25.9877 100.927 25.7782C100.754 25.5688 100.507 25.4641 100.184 25.4641L100.183 25.4623Z" fill="#666666"/>
<path d="M105.531 28.0171C105.531 28.4017 105.39 28.6979 105.107 28.9073C104.823 29.1167 104.428 29.2197 103.917 29.2197C103.375 29.2197 102.954 29.133 102.652 28.9597V28.3801C102.848 28.4812 103.058 28.5606 103.282 28.6184C103.507 28.6762 103.724 28.7051 103.931 28.7051C104.253 28.7051 104.501 28.6527 104.674 28.548C104.846 28.4433 104.934 28.2844 104.934 28.0713C104.934 27.9106 104.866 27.7734 104.727 27.6578C104.59 27.5441 104.321 27.4087 103.922 27.2534C103.542 27.1107 103.273 26.9844 103.113 26.8778C102.953 26.7713 102.833 26.6503 102.757 26.5131C102.678 26.3777 102.639 26.2152 102.639 26.0274C102.639 25.6898 102.775 25.4243 103.045 25.2293C103.316 25.0343 103.687 24.9368 104.157 24.9368C104.595 24.9368 105.025 25.0271 105.443 25.2077L105.224 25.7168C104.816 25.5471 104.444 25.4604 104.112 25.4604C103.82 25.4604 103.599 25.5074 103.452 25.5995C103.302 25.6916 103.229 25.8216 103.229 25.9841C103.229 26.0942 103.257 26.1881 103.313 26.2675C103.368 26.3452 103.459 26.4192 103.582 26.4896C103.706 26.56 103.943 26.6612 104.296 26.7948C104.779 26.9735 105.107 27.1523 105.276 27.3328C105.447 27.5134 105.531 27.7409 105.531 28.0153V28.0171Z" fill="#666666"/>
<path d="M109.165 28.0171C109.165 28.4017 109.024 28.6979 108.741 28.9073C108.458 29.1167 108.061 29.2197 107.551 29.2197C107.01 29.2197 106.589 29.133 106.286 28.9597V28.3801C106.482 28.4812 106.692 28.5606 106.917 28.6184C107.141 28.6762 107.359 28.7051 107.565 28.7051C107.888 28.7051 108.135 28.6527 108.308 28.548C108.483 28.4433 108.568 28.2844 108.568 28.0713C108.568 27.9106 108.501 27.7734 108.362 27.6578C108.225 27.5441 107.956 27.4087 107.556 27.2534C107.177 27.1107 106.908 26.9844 106.748 26.8778C106.587 26.7713 106.468 26.6503 106.39 26.5131C106.311 26.3777 106.272 26.2152 106.272 26.0274C106.272 25.6898 106.407 25.4243 106.678 25.2293C106.949 25.0343 107.32 24.9368 107.79 24.9368C108.228 24.9368 108.657 25.0271 109.076 25.2077L108.857 25.7168C108.447 25.5471 108.077 25.4604 107.745 25.4604C107.453 25.4604 107.232 25.5074 107.084 25.5995C106.935 25.6916 106.862 25.8216 106.862 25.9841C106.862 26.0942 106.89 26.1881 106.945 26.2675C107.001 26.3452 107.091 26.4192 107.214 26.4896C107.339 26.56 107.578 26.6612 107.929 26.7948C108.412 26.9735 108.739 27.1523 108.909 27.3328C109.078 27.5134 109.163 27.7409 109.163 28.0153L109.165 28.0171Z" fill="#666666"/>
<path d="M110.116 23.895C110.116 23.7524 110.15 23.6477 110.22 23.5809C110.289 23.5141 110.376 23.4816 110.48 23.4816C110.578 23.4816 110.663 23.5159 110.736 23.5827C110.807 23.6513 110.843 23.7542 110.843 23.895C110.843 24.0359 110.807 24.1406 110.736 24.2092C110.663 24.2778 110.578 24.3121 110.48 24.3121C110.376 24.3121 110.289 24.2778 110.22 24.2092C110.15 24.1406 110.116 24.0359 110.116 23.895ZM110.786 29.1457H110.168V25.0145H110.786V29.1457Z" fill="#666666"/>
<path d="M115.614 27.0765C115.614 27.7499 115.447 28.2754 115.112 28.6545C114.777 29.0319 114.316 29.2215 113.724 29.2215C113.359 29.2215 113.037 29.1348 112.753 28.9615C112.47 28.7881 112.253 28.539 112.099 28.2158C111.944 27.8926 111.87 27.5116 111.87 27.0783C111.87 26.4048 112.035 25.8812 112.368 25.5056C112.702 25.13 113.161 24.9423 113.753 24.9423C114.344 24.9423 114.775 25.1337 115.112 25.5182C115.449 25.9028 115.616 26.4228 115.616 27.0783L115.614 27.0765ZM112.509 27.0765C112.509 27.6037 112.613 28.0063 112.821 28.2826C113.029 28.5588 113.336 28.6979 113.74 28.6979C114.145 28.6979 114.451 28.5606 114.661 28.2844C114.87 28.0099 114.975 27.6073 114.975 27.0765C114.975 26.5456 114.87 26.152 114.661 25.8794C114.451 25.6067 114.143 25.4695 113.733 25.4695C113.323 25.4695 113.024 25.6031 112.817 25.8721C112.611 26.1412 112.509 26.542 112.509 27.0747V27.0765Z" fill="#666666"/>
<path d="M119.485 29.1457V26.4734C119.485 26.1376 119.411 25.8848 119.259 25.7205C119.108 25.5544 118.871 25.4713 118.548 25.4713C118.122 25.4713 117.809 25.5887 117.611 25.8216C117.413 26.0545 117.314 26.4409 117.314 26.979V29.1457H116.697V25.0145H117.2L117.301 25.5796H117.331C117.458 25.3756 117.634 25.2185 117.862 25.1066C118.09 24.9946 118.345 24.9387 118.625 24.9387C119.117 24.9387 119.485 25.0596 119.733 25.298C119.981 25.5381 120.105 25.9209 120.105 26.4499V29.1457H119.487H119.485Z" fill="#666666"/>
<path d="M124 28.0171C124 28.4017 123.859 28.6979 123.576 28.9073C123.295 29.1167 122.897 29.2197 122.386 29.2197C121.846 29.2197 121.424 29.133 121.121 28.9597V28.3801C121.317 28.4812 121.527 28.5606 121.752 28.6184C121.976 28.6762 122.192 28.7051 122.4 28.7051C122.723 28.7051 122.97 28.6527 123.145 28.548C123.318 28.4433 123.405 28.2844 123.405 28.0713C123.405 27.9106 123.335 27.7734 123.198 27.6578C123.061 27.5441 122.792 27.4087 122.393 27.2534C122.014 27.1107 121.743 26.9844 121.584 26.8778C121.424 26.7713 121.305 26.6503 121.228 26.5131C121.15 26.3777 121.11 26.2152 121.11 26.0274C121.11 25.6898 121.246 25.4243 121.517 25.2293C121.787 25.0343 122.156 24.9368 122.628 24.9368C123.066 24.9368 123.496 25.0271 123.914 25.2077L123.695 25.7168C123.286 25.5471 122.915 25.4604 122.584 25.4604C122.292 25.4604 122.071 25.5074 121.923 25.5995C121.773 25.6916 121.7 25.8216 121.7 25.9841C121.7 26.0942 121.727 26.1881 121.784 26.2675C121.839 26.3452 121.93 26.4192 122.053 26.4896C122.176 26.56 122.414 26.6612 122.767 26.7948C123.25 26.9735 123.578 27.1523 123.747 27.3328C123.916 27.5134 124.002 27.7409 124.002 28.0153L124 28.0171Z" fill="#666666"/>
<path d="M5.60292 5.02673C9.07156 5.02673 9.89463 7.26746 9.89463 7.26746H9.9463V6.77273C9.9463 5.83563 10.3578 5.3409 11.4107 5.3409H13.2101V6.87745H12.1572C11.7973 6.87745 11.5924 7.05982 11.5924 7.44982V18.1298C11.5924 22.2971 8.56026 23.9113 5.3731 23.9113C3.90868 23.9113 2.41754 23.5213 1.158 22.8695L1.82607 21.3853C1.82607 21.3853 3.41876 22.2971 5.32144 22.2971C7.84052 22.2971 9.84475 21.0982 9.84475 18.1822V17.0356C9.84475 16.5409 9.86969 16.0986 9.86969 16.0986H9.81803C9.04662 17.5304 7.76214 18.3646 5.75791 18.3646C2.28749 18.3627 0 15.5749 0 11.6424C0 7.70983 2.13249 5.02673 5.60292 5.02673ZM9.86969 11.6424C9.86969 7.81455 8.07034 6.64092 5.78285 6.64092C3.26377 6.64092 1.79935 8.48984 1.79935 11.6153C1.79935 14.7408 3.47042 16.772 6.01445 16.772C8.07034 16.772 9.86969 15.4955 9.86969 11.6406V11.6424Z" fill="#CB2027"/>
<path d="M16.1658 7.44983C16.1658 7.0851 15.961 6.87746 15.6011 6.87746H14.5215V5.34091H16.3458C17.4503 5.34091 17.9135 5.81036 17.9135 6.92982V16.3333C17.9135 16.7233 18.1184 16.9056 18.4783 16.9056H19.5579V18.4422H17.7336C16.629 18.4422 16.1658 17.9727 16.1658 16.8533V7.44983ZM16.1142 0.130005H17.8102V2.37073H16.1142V0.130005Z" fill="#CB2027"/>
<path d="M22.5135 6.82509H20.894V5.34091H22.5135V4.87145C22.5135 0.54709 25.5207 0 26.9602 0C27.4483 0 27.7565 0.0523618 27.7565 0.0523618V1.64127C27.7565 1.64127 27.5249 1.58891 27.1401 1.58891C26.1638 1.58891 24.2611 1.95364 24.2611 4.87145V5.34091H27.5498V6.82509H24.2611V18.4404H22.5135V6.82509Z" fill="#CB2027"/>
<path d="M30.4802 6.82511H28.7842V5.34093H30.5069V1.71893H32.2279V5.33912H35.4667V6.82331H32.2279V13.4913C32.2279 16.5644 34.1555 16.9562 35.1318 16.9562C35.4916 16.9562 35.7232 16.9039 35.7232 16.9039V18.4928C35.7232 18.4928 35.415 18.5451 34.9786 18.5451C33.4874 18.5451 30.4802 18.0504 30.4802 13.6737V6.82511Z" fill="#CB2027"/>
<path d="M38.4473 15.2373C38.4473 15.2373 39.8868 17.2162 42.4308 17.2162C43.8703 17.2162 45.1548 16.5138 45.1548 15.1326C45.1548 12.2671 37.9075 12.7889 37.9075 8.56928C37.9075 6.19855 39.9118 5.02673 42.5075 5.02673C43.8187 5.02673 46.4393 5.54855 46.4393 7.39746V8.51692H44.7949V7.89219C44.7949 6.92801 43.4071 6.56328 42.5591 6.56328C40.7598 6.56328 39.6802 7.18801 39.6802 8.46456C39.6802 11.4077 46.9274 10.7306 46.9274 15.0802C46.9274 17.2686 44.9749 18.7528 42.4041 18.7528C39.037 18.7528 37.4443 16.4615 37.4443 16.4615L38.4473 15.2373Z" fill="#CB2027"/>
<path d="M50.1396 8.54399C50.1396 8.15399 49.9347 7.97162 49.5748 7.97162H48.5469V5.15853H51.5541C52.7103 5.15853 53.2768 5.70562 53.2768 6.64272V7.03272C53.2768 7.31981 53.2252 7.60509 53.2252 7.60509H53.2768C53.8416 6.48563 55.2561 4.84436 57.9035 4.84436C60.8074 4.84436 62.4785 6.38091 62.4785 9.89818V15.082C62.4785 15.4467 62.6833 15.6544 63.0432 15.6544H64.0712V18.4422H60.9606C59.7278 18.4422 59.2129 17.9204 59.2129 16.6709V10.5753C59.2129 8.96108 58.8014 7.8669 57.157 7.8669C55.4093 7.8669 54.0981 8.98636 53.6367 10.5753C53.4568 11.1224 53.3802 11.7218 53.3802 12.3465V18.4422H50.1413V8.54399H50.1396Z" fill="black"/>
<path d="M66.8963 7.44983C66.8963 7.0851 66.6914 6.87746 66.3316 6.87746H65.252V5.34091H67.0762C68.1808 5.34091 68.644 5.81036 68.644 6.92982V16.3333C68.644 16.7233 68.8489 16.9056 69.2087 16.9056H70.2883V18.4422H68.4641C67.3595 18.4422 66.8963 17.9727 66.8963 16.8533V7.44983ZM66.8446 0.130005H68.5407V2.37073H66.8446V0.130005Z" fill="#CB2027"/>
<path d="M77.8691 5.02674C81.0046 5.02674 82.0843 7.4751 82.0843 7.4751H82.1359C82.1359 7.4751 82.0843 7.03274 82.0843 6.48565V2.24073C82.0843 1.876 81.8794 1.66836 81.5195 1.66836H80.4399V0.130005H82.2642C83.3687 0.130005 83.8319 0.599456 83.8319 1.71892V16.3315C83.8319 16.7215 84.0368 16.9038 84.3967 16.9038H85.4763V18.4404H83.6769C82.5973 18.4404 82.1341 17.9457 82.1341 16.9815C82.1341 16.4868 82.1858 16.1473 82.1858 16.1473H82.1341C82.1341 16.1473 81.0812 18.751 77.6874 18.751C74.2936 18.751 72.0596 15.9379 72.0596 11.8753C72.0596 7.81275 74.4753 5.02493 77.8674 5.02493L77.8691 5.02674ZM82.1359 11.8771C82.1359 9.2211 80.7998 6.61565 78.0241 6.61565C75.7366 6.61565 73.8607 8.56929 73.8607 11.8771C73.8607 15.1849 75.5318 17.1638 77.9475 17.1638C80.1067 17.1638 82.1359 15.6002 82.1359 11.8771Z" fill="#CB2027"/>
<path d="M93.4946 5.02673C97.0666 5.02673 98.9176 7.81455 98.9176 11.07C98.9176 11.3824 98.8659 11.9547 98.8659 11.9547H88.9464C88.998 15.2626 91.2855 17.1638 93.9578 17.1638C96.3219 17.1638 97.838 15.5497 97.838 15.5497L98.686 16.8786C98.686 16.8786 96.81 18.7546 93.8812 18.7546C90.0509 18.7546 87.1221 15.9415 87.1221 11.9042C87.1221 7.60691 90.026 5.02854 93.4964 5.02854L93.4946 5.02673ZM97.1183 10.5482C97.0149 7.83983 95.3706 6.51092 93.4697 6.51092C91.3372 6.51092 89.4612 7.91747 89.023 10.5482H97.1183Z" fill="#CB2027"/>
<path d="M109.121 10.3658H109.84V10.2105C109.84 7.47509 108.864 6.51272 106.5 6.51272C105.857 6.51272 103.981 6.69508 103.981 7.65926V8.49344H102.31V7.24397C102.31 5.42034 105.394 5.03033 106.525 5.03033C110.612 5.03033 111.588 7.24398 111.588 10.0571V16.3351C111.588 16.7251 111.795 16.9074 112.153 16.9074H113.233V18.444H111.46C110.355 18.444 109.917 17.9493 109.917 16.8804C109.917 16.308 109.942 15.9162 109.942 15.9162H109.89C109.917 15.9162 108.837 18.7545 105.599 18.7545C103.439 18.7545 101.204 17.478 101.204 14.8744C101.204 10.5247 106.883 10.3676 109.119 10.3676L109.121 10.3658ZM105.884 17.2415C108.351 17.2415 109.842 14.636 109.842 12.3718V11.7724H109.098C107.067 11.7724 103.007 11.8247 103.007 14.7678C103.007 15.992 103.958 17.2415 105.885 17.2415H105.884Z" fill="#CB2027"/>
<path d="M115.52 15.2373C115.52 15.2373 116.96 17.2162 119.504 17.2162C120.943 17.2162 122.228 16.5138 122.228 15.1326C122.228 12.2671 114.98 12.7889 114.98 8.56928C114.98 6.19855 116.985 5.02673 119.58 5.02673C120.891 5.02673 123.512 5.54855 123.512 7.39746V8.51692H121.868V7.89219C121.868 6.92801 120.48 6.56328 119.632 6.56328C117.833 6.56328 116.753 7.18801 116.753 8.46456C116.753 11.4077 124 10.7306 124 15.0802C124 17.2686 122.048 18.7528 119.477 18.7528C116.11 18.7528 114.517 16.4615 114.517 16.4615L115.52 15.2373Z" fill="#CB2027"/>
</svg>
