<svg width="44" height="40" viewBox="0 0 44 40" fill="none" xmlns="http://www.w3.org/2000/svg">
<path d="M21.9999 39.5C21.386 39.5 20.8711 39.292 20.4551 38.876C20.0391 38.46 19.8318 37.9458 19.8333 37.3333C19.8333 36.7194 20.0413 36.2045 20.4573 35.7885C20.8733 35.3725 21.3875 35.1652 21.9999 35.1667H37.1666V19.7833C37.1666 17.6889 36.7694 15.7208 35.9749 13.8792C35.1805 12.0375 34.0971 10.4306 32.7249 9.05834C31.3527 7.68611 29.7458 6.60278 27.9041 5.80834C26.0624 5.01389 24.0944 4.61667 21.9999 4.61667C19.9055 4.61667 17.9374 5.01389 16.0958 5.80834C14.2541 6.60278 12.6471 7.68611 11.2749 9.05834C9.9027 10.4306 8.81937 12.0375 8.02492 13.8792C7.23048 15.7208 6.83326 17.6889 6.83326 19.7833V30.8333C6.83326 31.4472 6.62598 31.9622 6.21142 32.3782C5.79687 32.7942 5.28192 33.0014 4.66659 33C3.47492 33 2.45442 32.5753 1.60509 31.726C0.755755 30.8767 0.331811 29.8569 0.333256 28.6667V24.3333C0.333256 23.5028 0.531867 22.7719 0.929089 22.1407C1.32631 21.5094 1.84992 20.9945 2.49992 20.5958L2.66242 17.725C2.98742 15.0889 3.73709 12.7056 4.91142 10.575C6.08575 8.44445 7.54826 6.63889 9.29892 5.15834C11.0496 3.67778 13.0176 2.53089 15.2031 1.71767C17.3885 0.904448 19.6541 0.498559 21.9999 0.500004C24.3833 0.500004 26.6676 0.906615 28.8531 1.71984C31.0385 2.53306 32.9972 3.68862 34.7291 5.1865C36.4624 6.68439 37.9163 8.48995 39.0906 10.6032C40.2649 12.7164 41.0139 15.0723 41.3374 17.6708L41.4999 20.4875C42.1499 20.8125 42.6735 21.2913 43.0708 21.924C43.468 22.5567 43.6666 23.2514 43.6666 24.0083V28.9917C43.6666 29.7861 43.468 30.4903 43.0708 31.1042C42.6735 31.7181 42.1499 32.1875 41.4999 32.5125V35.1667C41.4999 36.3583 41.0753 37.3788 40.2259 38.2282C39.3766 39.0775 38.3568 39.5014 37.1666 39.5H21.9999ZM15.4999 24.3333C14.886 24.3333 14.3711 24.1253 13.9551 23.7093C13.5391 23.2933 13.3318 22.7791 13.3333 22.1667C13.3333 21.5528 13.5413 21.0378 13.9573 20.6218C14.3733 20.2058 14.8875 19.9986 15.4999 20C16.1138 20 16.6288 20.208 17.0448 20.624C17.4608 21.04 17.668 21.5542 17.6666 22.1667C17.6666 22.7806 17.4586 23.2955 17.0426 23.7115C16.6266 24.1275 16.1124 24.3348 15.4999 24.3333ZM28.4999 24.3333C27.886 24.3333 27.3711 24.1253 26.9551 23.7093C26.5391 23.2933 26.3318 22.7791 26.3333 22.1667C26.3333 21.5528 26.5413 21.0378 26.9573 20.6218C27.3733 20.2058 27.8875 19.9986 28.4999 20C29.1138 20 29.6288 20.208 30.0448 20.624C30.4608 21.04 30.668 21.5542 30.6666 22.1667C30.6666 22.7806 30.4586 23.2955 30.0426 23.7115C29.6266 24.1275 29.1124 24.3348 28.4999 24.3333ZM9.05409 20.975C8.90964 18.8444 9.20792 16.9125 9.94892 15.1792C10.6899 13.4458 11.683 11.9739 12.9281 10.7635C14.1732 9.5545 15.6083 8.625 17.2333 7.975C18.8583 7.325 20.4833 7 22.1083 7C25.3944 7 28.2385 8.03856 30.6406 10.1157C33.0427 12.1928 34.4958 14.7827 34.9999 17.8853C31.6055 17.8507 28.536 16.9392 25.7916 15.151C23.0471 13.3628 20.9708 11.043 19.5624 8.19167C18.9846 11.1167 17.7655 13.708 15.9051 15.9657C14.0446 18.2233 11.7595 19.8931 9.05409 20.975Z" fill="url(#paint0_linear_383_3436)"/>
<defs>
<linearGradient id="paint0_linear_383_3436" x1="10.2744" y1="0.500002" x2="50.9661" y2="19.6088" gradientUnits="userSpaceOnUse">
<stop stop-color="#DB3E45"/>
<stop offset="1" stop-color="#CC1F9C"/>
</linearGradient>
</defs>
</svg>
