<svg width="41" height="37" viewBox="0 0 41 37" fill="none" xmlns="http://www.w3.org/2000/svg">
<path d="M40.6183 17.9848L35.7433 6.60975C35.6182 6.31738 35.41 6.06819 35.1445 5.89313C34.879 5.71806 34.5679 5.62483 34.2499 5.625H29.3749V2.375C29.3749 1.94402 29.2037 1.5307 28.899 1.22595C28.5942 0.921205 28.1809 0.75 27.7499 0.75H1.74993V4H26.1249V24.4035C25.3845 24.8335 24.7365 25.4058 24.2183 26.0874C23.7001 26.769 23.3219 27.5465 23.1057 28.375H12.8942C12.4987 26.8432 11.5581 25.5082 10.2487 24.6203C8.93928 23.7324 7.35101 23.3525 5.78156 23.5518C4.21211 23.7512 2.76924 24.5161 1.72341 25.7031C0.677578 26.8902 0.100586 28.4179 0.100586 30C0.100586 31.5821 0.677578 33.1098 1.72341 34.2969C2.76924 35.4839 4.21211 36.2488 5.78156 36.4482C7.35101 36.6475 8.93928 36.2676 10.2487 35.3797C11.5581 34.4918 12.4987 33.1568 12.8942 31.625H23.1057C23.4592 33.0196 24.2676 34.2566 25.4031 35.1402C26.5385 36.0237 27.9362 36.5035 29.3749 36.5035C30.8137 36.5035 32.2113 36.0237 33.3468 35.1402C34.4823 34.2566 35.2907 33.0196 35.6442 31.625H39.1249C39.5559 31.625 39.9692 31.4538 40.274 31.149C40.5787 30.8443 40.7499 30.431 40.7499 30V18.625C40.75 18.4049 40.7052 18.187 40.6183 17.9848ZM6.62493 33.25C5.98214 33.25 5.35379 33.0594 4.81933 32.7023C4.28487 32.3452 3.86831 31.8376 3.62232 31.2437C3.37634 30.6499 3.31198 29.9964 3.43738 29.366C3.56278 28.7355 3.87232 28.1564 4.32684 27.7019C4.78136 27.2474 5.36045 26.9378 5.99089 26.8124C6.62133 26.687 7.27479 26.7514 7.86865 26.9974C8.46251 27.2434 8.97009 27.6599 9.32721 28.1944C9.68432 28.7289 9.87493 29.3572 9.87493 30C9.87407 30.8617 9.53139 31.6878 8.92208 32.2971C8.31277 32.9065 7.48662 33.2491 6.62493 33.25ZM29.3749 8.875H33.1774L36.6614 17H29.3749V8.875ZM29.3749 33.25C28.7321 33.25 28.1038 33.0594 27.5693 32.7023C27.0349 32.3452 26.6183 31.8376 26.3723 31.2437C26.1263 30.6499 26.062 29.9964 26.1874 29.366C26.3128 28.7355 26.6223 28.1564 27.0768 27.7019C27.5314 27.2474 28.1105 26.9378 28.7409 26.8124C29.3713 26.687 30.0248 26.7514 30.6187 26.9974C31.2125 27.2434 31.7201 27.6599 32.0772 28.1944C32.4343 28.7289 32.6249 29.3572 32.6249 30C32.6241 30.8617 32.2814 31.6878 31.6721 32.2971C31.0628 32.9065 30.2366 33.2491 29.3749 33.25ZM37.4999 28.375H35.6442C35.2862 26.9831 34.4765 25.7493 33.3419 24.867C32.2074 23.9848 30.8121 23.504 29.3749 23.5V20.25H37.4999V28.375Z" fill="url(#paint0_linear_389_3522)"/>
<defs>
<linearGradient id="paint0_linear_389_3522" x1="9.42602" y1="0.750002" x2="47.2758" y2="18.9373" gradientUnits="userSpaceOnUse">
<stop stop-color="#DB3E45"/>
<stop offset="1" stop-color="#CC1F9C"/>
</linearGradient>
</defs>
</svg>
