<svg width="40" height="47" viewBox="0 0 40 47" fill="none" xmlns="http://www.w3.org/2000/svg">
<path d="M20.65 16.3483L15.4067 11.0833H27.5833V18.6667H30.8333V7.83333H15.4067L20.65 2.56833L18.3533 0.25L9.16667 9.45833L18.3533 18.6667L20.65 16.3483ZM20 27.3333C18.7144 27.3333 17.4577 27.7146 16.3888 28.4288C15.3199 29.143 14.4868 30.1582 13.9948 31.3459C13.5028 32.5336 13.3741 33.8405 13.6249 35.1014C13.8757 36.3623 14.4948 37.5205 15.4038 38.4295C16.3128 39.3386 17.471 39.9576 18.7319 40.2084C19.9928 40.4592 21.2997 40.3305 22.4874 39.8385C23.6752 39.3466 24.6903 38.5135 25.4046 37.4445C26.1188 36.3756 26.5 35.1189 26.5 33.8333C26.5 32.1094 25.8152 30.4561 24.5962 29.2371C23.3772 28.0182 21.7239 27.3333 20 27.3333ZM0.5 20.8333V46.8333H39.5V20.8333M35.1667 38.1667C34.0174 38.1667 32.9152 38.6232 32.1025 39.4359C31.2899 40.2485 30.8333 41.3507 30.8333 42.5H9.16667C9.16667 41.3507 8.71012 40.2485 7.89746 39.4359C7.08481 38.6232 5.9826 38.1667 4.83333 38.1667V29.5C5.9826 29.5 7.08481 29.0435 7.89746 28.2308C8.71012 27.4181 9.16667 26.3159 9.16667 25.1667H30.8333C30.8333 26.3159 31.2899 27.4181 32.1025 28.2308C32.9152 29.0435 34.0174 29.5 35.1667 29.5V38.1667Z" fill="url(#paint0_linear_383_3451)"/>
<defs>
<linearGradient id="paint0_linear_383_3451" x1="9.44706" y1="0.250002" x2="49.1721" y2="14.3062" gradientUnits="userSpaceOnUse">
<stop stop-color="#DB3E45"/>
<stop offset="1" stop-color="#CC1F9C"/>
</linearGradient>
</defs>
</svg>
