<svg width="32" height="32" viewBox="0 0 32 32" fill="none" xmlns="http://www.w3.org/2000/svg">
<g clip-path="url(#clip0_281_595)">
<path d="M23.9222 5.54988C23.0251 5.22344 22.0295 5.6875 21.7029 6.58475C21.3764 7.48188 21.8406 8.47744 22.7378 8.804C22.9311 8.87431 23.1313 8.90931 23.331 8.90931C23.5804 8.90931 23.829 8.85469 24.0617 8.74619C24.4808 8.55075 24.7988 8.20375 24.957 7.76919C25.1151 7.33456 25.0946 6.86438 24.8991 6.44525C24.7037 6.02613 24.3568 5.70806 23.9222 5.54988ZM24.076 7.44844C24.076 7.4485 24.076 7.4485 24.076 7.44844C24.0035 7.64775 23.8576 7.80688 23.6655 7.89644C23.4733 7.98606 23.2576 7.9955 23.0584 7.92294C22.647 7.77319 22.4341 7.31669 22.5838 6.90531C22.7011 6.58325 23.0063 6.38288 23.3307 6.38288C23.4206 6.38288 23.5121 6.39831 23.6015 6.43081C23.8007 6.50331 23.9598 6.64913 24.0495 6.84131C24.1391 7.03363 24.1486 7.24919 24.076 7.44844Z" fill="#CB1B23"/>
<path d="M28.144 6.32769C28.0667 5.89056 27.8252 5.50456 27.4766 5.2435C27.5007 4.80838 27.36 4.37506 27.0747 4.03494C26.7894 3.695 26.3871 3.48131 25.9542 3.42944C25.7577 3.0405 25.4191 2.73538 25.0012 2.58319C24.5845 2.43181 24.1295 2.448 23.7289 2.61919C23.3644 2.381 22.9187 2.28606 22.4807 2.36281C22.0435 2.44019 21.6575 2.68181 21.3964 3.0305C21.0713 3.01269 20.7474 3.08644 20.4631 3.24338C20.4526 2.96594 20.3759 2.69125 20.2333 2.44412C20.0113 2.05969 19.6522 1.77938 19.235 1.65319C19.1088 1.236 18.8285 0.876938 18.444 0.654938C18.0597 0.433 17.6085 0.36975 17.1841 0.469063C16.8662 0.170813 16.4439 0 16 0C15.5561 0 15.1339 0.170813 14.8159 0.469C14.3915 0.369625 13.9404 0.432875 13.5559 0.654875C13.1715 0.876812 12.8912 1.23588 12.765 1.65313C12.3477 1.77931 11.9887 2.05962 11.7667 2.44406C11.624 2.69119 11.5474 2.96588 11.5369 3.24331C11.2525 3.08619 10.9288 3.01225 10.6035 3.03044C10.3425 2.68175 9.9563 2.44012 9.51849 2.36262C9.08111 2.28587 8.63561 2.38094 8.27123 2.61912C7.87048 2.448 7.41536 2.43181 6.99842 2.58331C6.5808 2.73544 6.2423 3.0405 6.0458 3.42944C5.61299 3.48137 5.21061 3.69506 4.9253 4.035C4.63999 4.37512 4.49936 4.80844 4.52342 5.24356C4.17486 5.50463 3.9333 5.89075 3.85586 6.3285C3.77917 6.76587 3.87411 7.21119 4.11223 7.57556C3.94105 7.976 3.92498 8.43137 4.07661 8.84937C4.2288 9.26656 4.5338 9.60481 4.92267 9.80119C4.97455 10.234 5.18817 10.6362 5.52786 10.9213C5.86767 11.207 6.30105 11.3479 6.73667 11.3236C6.99755 11.6721 7.38374 11.9136 7.82174 11.9911C7.9213 12.0086 8.02123 12.0172 8.12061 12.0172C8.45761 12.0172 8.7873 11.9187 9.06874 11.7348C9.32467 11.8442 9.6028 11.8899 9.87917 11.8694L10.3435 13.1451L9.4128 13.1417C9.41223 13.1417 9.41167 13.1417 9.41111 13.1417C9.24905 13.1417 9.09842 13.2254 9.01286 13.3632C8.92698 13.5014 8.91905 13.6744 8.9918 13.8199L10.3584 16.5551C10.4741 16.7867 10.7556 16.8806 10.9872 16.7649C11.2189 16.6493 11.3127 16.3677 11.197 16.1361L10.1707 14.082L18.3739 14.1122L16.2107 23.8021H15.0272L12.1788 18.1012C12.0631 17.8696 11.7815 17.7757 11.55 17.8914C11.3184 18.0071 11.2245 18.2886 11.3402 18.5202L14.0855 24.0149C14.0197 24.0633 13.9594 24.1185 13.906 24.1801C13.1102 23.6324 11.5371 22.6656 10.3467 22.6656C9.65674 22.6656 9.32067 22.9868 9.16017 23.2563C8.65586 24.1029 9.26661 25.5546 9.56705 26.1649C9.26661 26.7752 8.65586 28.2268 9.16017 29.0735C9.32067 29.3429 9.6568 29.6641 10.3467 29.6641C11.5371 29.6641 13.1102 28.6974 13.906 28.1497C13.9739 28.2279 14.0526 28.2964 14.14 28.3528L13.0948 31.3784C13.0453 31.5216 13.0681 31.68 13.1561 31.8034C13.244 31.9269 13.3863 32.0002 13.5379 32.0002H18.4624C18.614 32.0002 18.7562 31.9269 18.8442 31.8034C18.9321 31.68 18.9549 31.5216 18.9054 31.3784L17.8602 28.3528C17.9476 28.2964 18.0263 28.2279 18.0942 28.1497C18.89 28.6974 20.4631 29.6641 21.6535 29.6641C22.3434 29.6641 22.6795 29.3429 22.84 29.0736C23.3443 28.2269 22.7336 26.7752 22.4332 26.1649C22.7336 25.5546 23.3443 24.1029 22.84 23.2562C22.6795 22.9867 22.3434 22.6656 21.6535 22.6656C20.4632 22.6656 18.89 23.6324 18.0942 24.1801C18.0409 24.1186 17.9808 24.0635 17.9151 24.0152L19.8826 20.0774C19.9984 19.8459 19.9044 19.5643 19.6729 19.4486C19.4414 19.3329 19.1597 19.4268 19.044 19.6584L17.3308 23.0872L19.0562 15.3582H21.1924L20.0291 17.6865C19.9134 17.9181 20.0073 18.1996 20.2389 18.3153C20.3061 18.3489 20.3776 18.3648 20.448 18.3648C20.62 18.3648 20.7856 18.2698 20.8677 18.1055L22.3699 15.099C22.4425 14.9537 22.4347 14.7812 22.3493 14.643C22.2639 14.5049 22.113 14.4207 21.9506 14.4207H21.1924L22.121 11.8693C22.3974 11.8898 22.6756 11.8441 22.9315 11.7347C23.2129 11.9185 23.5425 12.017 23.8797 12.017C23.9793 12.017 24.0795 12.0084 24.1793 11.9909C24.6167 11.9135 25.0027 11.6721 25.2636 11.3236C25.6985 11.3477 26.1324 11.2071 26.4721 10.9216C26.812 10.6362 27.0257 10.234 27.0776 9.80119C27.4664 9.60475 27.7716 9.26637 27.924 8.84856C28.0754 8.43112 28.0592 7.97594 27.888 7.5755C28.126 7.21106 28.2209 6.76562 28.144 6.32769ZM17.269 24.7395C17.3552 24.7395 17.4253 24.8096 17.4253 24.8958V27.4338C17.4253 27.5199 17.3552 27.5901 17.269 27.5901H14.731C14.6449 27.5901 14.5747 27.5199 14.5747 27.4338V24.8958C14.5747 24.8096 14.6449 24.7395 14.731 24.7395H17.269ZM9.96561 28.5938C9.74292 28.2204 10.1365 27.0728 10.5062 26.3881C10.5815 26.2489 10.5815 26.081 10.5064 25.9418C10.1365 25.2569 9.74286 24.1091 9.96555 23.7358C9.98511 23.7029 10.0447 23.6031 10.3466 23.6031C11.3134 23.6031 12.9057 24.6094 13.6372 25.1379V25.6961H12.8432C12.5843 25.6961 12.3744 25.9059 12.3744 26.1648C12.3744 26.4237 12.5843 26.6336 12.8432 26.6336H13.6372V27.1917C12.9056 27.7202 11.3134 28.7266 10.3466 28.7266C10.0447 28.7265 9.98517 28.6266 9.96561 28.5938ZM14.1956 31.0625L15.0713 28.5276H15.5312V29.7634C15.5312 30.0223 15.7411 30.2322 16 30.2322C16.2589 30.2322 16.4687 30.0223 16.4687 29.7634V28.5276H16.9287L17.8045 31.0625H14.1956ZM22.0344 23.7357C22.2571 24.1091 21.8635 25.2567 21.4938 25.9414C21.4185 26.0806 21.4185 26.2485 21.4937 26.3877C21.8635 27.0727 22.2572 28.2204 22.0344 28.5938C22.0149 28.6266 21.9552 28.7264 21.6534 28.7264C20.6866 28.7264 19.0944 27.7201 18.3628 27.1916V26.6334H19.1567C19.4157 26.6334 19.6255 26.4236 19.6255 26.1647C19.6255 25.9058 19.4157 25.6959 19.1567 25.6959H18.3628V25.1378C19.0944 24.6092 20.6867 23.6029 21.6534 23.6029C21.9553 23.603 22.0149 23.7029 22.0344 23.7357ZM12.3924 4.23531C12.5808 4.10475 12.6472 3.85706 12.5492 3.64975C12.4376 3.4135 12.4486 3.138 12.5786 2.91281C12.7086 2.68762 12.9417 2.54044 13.2021 2.51894C13.4306 2.50013 13.612 2.31875 13.6308 2.09031C13.6523 1.82987 13.7995 1.59675 14.0247 1.46675C14.2498 1.33675 14.5253 1.32575 14.7616 1.43737C14.9689 1.53519 15.2166 1.46887 15.3472 1.28044C15.4959 1.06562 15.74 0.937437 16 0.937437C16.26 0.937437 16.504 1.06569 16.6529 1.2805C16.7834 1.46894 17.0312 1.53531 17.2384 1.43737C17.4746 1.32581 17.7502 1.33675 17.9753 1.46675C18.2004 1.59675 18.3477 1.82987 18.3692 2.09031C18.3881 2.31875 18.5694 2.50013 18.7979 2.51894C19.0583 2.54038 19.2914 2.68762 19.4214 2.91281C19.5514 3.13794 19.5624 3.41344 19.4507 3.64975C19.3528 3.857 19.4192 4.10475 19.6077 4.23531C19.8225 4.38412 19.9507 4.62819 19.9507 4.88819C19.9507 5.14819 19.8224 5.39225 19.6077 5.541C19.4192 5.67156 19.3528 5.91925 19.4507 6.12656C19.5624 6.36288 19.5514 6.63838 19.4214 6.8635C19.2914 7.08869 19.0583 7.23587 18.7979 7.25737C18.5694 7.27619 18.388 7.45756 18.3692 7.686C18.3477 7.94644 18.2005 8.17956 17.9753 8.30956C17.7501 8.43956 17.4745 8.45056 17.2384 8.33894C17.031 8.24106 16.7835 8.30744 16.6529 8.49575C16.504 8.71063 16.2599 8.83887 16 8.83887C15.74 8.83887 15.4959 8.71062 15.3471 8.49581C15.2571 8.36581 15.1114 8.29394 14.9615 8.29394C14.8941 8.29394 14.8259 8.3085 14.7615 8.33894C14.5253 8.45056 14.2498 8.4395 14.0246 8.30956C13.7994 8.17956 13.6522 7.94644 13.6307 7.686C13.6119 7.45756 13.4305 7.27619 13.2021 7.25737C12.9417 7.23587 12.7085 7.08863 12.5785 6.8635C12.4485 6.63838 12.4376 6.36281 12.5492 6.12656C12.6471 5.91925 12.5807 5.67156 12.3923 5.541C12.1775 5.39219 12.0492 5.14812 12.0492 4.88812C12.0492 4.62812 12.1775 4.38412 12.3924 4.23531ZM18.0851 12.6832C17.7798 12.9886 17.4199 13.1383 17.0881 13.1699C17.0881 13.1699 16.6984 13.1699 16.5385 13.1069C16.3835 12.6772 16.4736 12.0491 16.9624 11.5603C17.5839 10.9388 18.3887 10.8078 18.858 10.7898C18.8416 11.2567 18.7119 12.0564 18.0851 12.6832ZM14.849 13.1616C14.535 13.118 14.2012 12.9694 13.9149 12.6832C13.2934 12.0616 13.1624 11.2567 13.1444 10.7876C13.6113 10.8039 14.411 10.9336 15.0377 11.5604C15.5265 12.0491 15.6165 12.6773 15.4615 13.107C15.1808 13.1898 14.849 13.1616 14.849 13.1616ZM12.8167 9.11019C12.94 9.01781 13.0496 8.90956 13.1436 8.78913C13.2619 8.91881 13.4002 9.03163 13.556 9.12156C13.9405 9.34356 14.3916 9.40669 14.816 9.30744C15.019 9.49788 15.2647 9.63606 15.5314 9.71131V10.7404C14.4089 9.75994 13.0089 9.83269 12.6892 9.8645C12.7869 9.6265 12.8311 9.36881 12.8167 9.11019ZM16.4688 10.7404V9.71125C16.7354 9.636 16.9811 9.49788 17.1841 9.30744C17.6085 9.40669 18.0597 9.3435 18.4441 9.12156C18.5999 9.03163 18.7382 8.91887 18.8564 8.78919C18.9504 8.90956 19.06 9.01781 19.1834 9.11019C19.1689 9.36881 19.2131 9.6265 19.3108 9.86444C18.9911 9.83269 17.5913 9.76 16.4688 10.7404ZM8.68611 10.8435C8.5028 11.0288 8.24005 11.1126 7.98424 11.0678C7.72774 11.0224 7.5098 10.8539 7.40111 10.6171C7.30536 10.4085 7.07292 10.2998 6.85142 10.3604C6.59905 10.4294 6.32986 10.3708 6.13074 10.2034C5.93161 10.0364 5.82711 9.78112 5.85117 9.52069C5.8723 9.29219 5.72492 9.082 5.50292 9.024C5.25042 8.958 5.04649 8.77269 4.95761 8.52894C4.86867 8.28381 4.90567 8.01019 5.05649 7.797C5.18892 7.60975 5.16649 7.35425 5.00342 7.193C4.81811 7.00969 4.7343 6.747 4.77917 6.49106C4.82455 6.23481 4.99311 6.01681 5.23017 5.90781C5.43855 5.812 5.54705 5.5795 5.48661 5.35825C5.41767 5.10625 5.47636 4.83681 5.64355 4.63756C5.81061 4.43844 6.06574 4.33387 6.3263 4.358C6.5548 4.37906 6.76498 4.23169 6.82298 4.00969C6.88892 3.75725 7.07442 3.55331 7.31886 3.46431C7.56311 3.37563 7.83661 3.41269 8.05049 3.56363C8.23767 3.69563 8.49286 3.67313 8.65399 3.51025C8.8373 3.32488 9.10005 3.24119 9.35586 3.28594C9.61217 3.33131 9.83017 3.49994 9.93917 3.737C10.0348 3.94519 10.2669 4.05369 10.4881 3.99356C10.7412 3.92469 11.0107 3.98325 11.2099 4.15069C11.2265 4.16463 11.2423 4.17956 11.2577 4.19475C11.1631 4.41056 11.1119 4.64612 11.1119 4.88819C11.1119 5.33212 11.2827 5.75437 11.5809 6.07231C11.4816 6.49675 11.5449 6.94788 11.7668 7.33231C11.9425 7.63675 12.2045 7.8755 12.513 8.02456C12.4374 8.20888 12.295 8.36094 12.1099 8.446C11.9015 8.54175 11.793 8.77431 11.8535 8.99556C11.9225 9.24781 11.864 9.51712 11.6966 9.71619C11.5295 9.91537 11.2744 10.0198 11.0139 9.99575C10.7858 9.97469 10.5752 10.122 10.5172 10.3441C10.4512 10.5965 10.2657 10.8004 10.0213 10.8894C9.77661 10.9783 9.50336 10.9413 9.29017 10.7905C9.10292 10.658 8.84736 10.6805 8.68611 10.8435ZM10.7601 11.5487C10.9851 11.3867 11.1688 11.1728 11.2944 10.9244C11.6304 10.8841 11.9477 10.746 12.2063 10.5274C12.1873 11.0351 12.25 12.1931 13.0762 13.1551L11.3425 13.1488L10.7601 11.5487ZM19.2655 14.4207L19.4158 13.7476C19.4467 13.6091 19.4132 13.4639 19.3247 13.3531C19.2361 13.2421 19.102 13.1773 18.96 13.1768L18.9053 13.1766C19.7492 12.2103 19.8129 11.0388 19.7937 10.5274C20.0524 10.746 20.3697 10.8841 20.7057 10.9244C20.8312 11.1727 21.0149 11.3867 21.2399 11.5487L20.1945 14.4208H19.2655V14.4207ZM26.9435 7.79694C27.0944 8.01012 27.1314 8.28381 27.0428 8.52806C26.9536 8.77263 26.7496 8.95794 26.4971 9.02394C26.2751 9.08194 26.1277 9.29219 26.1489 9.52069C26.173 9.78106 26.0685 10.0363 25.869 10.2036C25.6702 10.3707 25.4011 10.4294 25.1487 10.3603C24.9271 10.2997 24.6947 10.4085 24.599 10.617C24.4904 10.8539 24.2723 11.0224 24.0166 11.0676C23.7598 11.1125 23.4972 11.0287 23.314 10.8434C23.1528 10.6804 22.8973 10.6579 22.71 10.7904C22.4967 10.9412 22.2235 10.9781 21.9792 10.8894C21.7345 10.8003 21.5489 10.5964 21.483 10.3439C21.425 10.1219 21.2149 9.97481 20.9863 9.99562C20.7256 10.0196 20.4707 9.91519 20.3033 9.71575C20.1362 9.517 20.0777 9.24775 20.1467 8.9955C20.2072 8.77425 20.0987 8.54169 19.8902 8.44588C19.7049 8.36069 19.5624 8.20838 19.487 8.02456C19.7956 7.87556 20.0577 7.63675 20.2334 7.33225C20.4554 6.94788 20.5186 6.49669 20.4193 6.07225C20.7175 5.75437 20.8883 5.33206 20.8883 4.88812C20.8883 4.646 20.8372 4.4105 20.7426 4.19469C20.7582 4.17925 20.7742 4.16419 20.7911 4.15C20.9895 3.98325 21.259 3.92475 21.5121 3.99356C21.7332 4.05369 21.9654 3.94512 22.061 3.737C22.1699 3.49994 22.388 3.33131 22.6435 3.28606C22.8998 3.24106 23.1629 3.32494 23.3461 3.51025C23.5072 3.67306 23.7624 3.69569 23.9497 3.56363C24.1635 3.41275 24.437 3.37556 24.6809 3.46419C24.9256 3.55331 25.1112 3.75725 25.1771 4.00975C25.235 4.23169 25.4444 4.379 25.6737 4.358C25.9344 4.334 26.1894 4.43844 26.3565 4.6375C26.5237 4.83675 26.5824 5.10625 26.5135 5.35825C26.453 5.5795 26.5615 5.812 26.7699 5.90775C27.007 6.01669 27.1755 6.23469 27.2208 6.49025C27.2659 6.74688 27.182 7.00962 26.9966 7.19294C26.8336 7.35419 26.8111 7.60975 26.9435 7.79694Z" fill="#CB1B23"/>
<path d="M10.297 6.58475C10.1388 6.15013 9.82085 5.80319 9.40166 5.60769C8.98241 5.41225 8.51229 5.39169 8.07773 5.54987C7.6431 5.70806 7.29616 6.026 7.10066 6.44519C6.90516 6.86437 6.88466 7.3345 7.04285 7.76912C7.29848 8.47144 7.96416 8.90844 8.67166 8.90844C8.86785 8.90844 9.06735 8.87481 9.2621 8.80394C10.1593 8.47744 10.6235 7.48188 10.297 6.58475ZM9.38954 7.5125C9.29991 7.70469 9.14079 7.8505 8.94154 7.923C8.53016 8.07275 8.0736 7.85988 7.92391 7.44844C7.85135 7.24919 7.86079 7.03356 7.95041 6.84137C8.04004 6.64919 8.1991 6.50337 8.39841 6.43087C8.59773 6.35831 8.81329 6.36775 9.00548 6.45737C9.19766 6.547 9.34348 6.70606 9.41598 6.90537C9.48854 7.10469 9.47916 7.32025 9.38954 7.5125Z" fill="#CB1B23"/>
<path d="M16 6.61969C16.9547 6.61969 17.7314 5.84294 17.7314 4.88825C17.7314 3.93356 16.9547 3.15681 16 3.15681C15.0453 3.15681 14.2686 3.93356 14.2686 4.88825C14.2686 5.84294 15.0452 6.61969 16 6.61969ZM16 4.09425C16.4378 4.09425 16.7939 4.45044 16.7939 4.88819C16.7939 5.32594 16.4378 5.68213 16 5.68213C15.5622 5.68213 15.2061 5.32594 15.2061 4.88819C15.2061 4.45044 15.5622 4.09425 16 4.09425Z" fill="#CB1B23"/>
</g>
<defs>
<clipPath id="clip0_281_595">
<rect width="32" height="32" fill="white"/>
</clipPath>
</defs>
</svg>
