<svg width="32" height="32" viewBox="0 0 32 32" fill="none" xmlns="http://www.w3.org/2000/svg">
<g clip-path="url(#clip0_281_600)">
<path d="M31.93 28.7594C31.8446 28.6212 31.6938 28.5371 31.5313 28.5371H29.0958V26.2279V24.3338V22.1216C29.1 22.1196 29.1042 22.1181 29.1084 22.116C29.49 21.9302 29.7271 21.5511 29.7271 21.1267V20.1669C29.7271 19.5603 29.2336 19.0667 28.627 19.0667H27.2016V13.914C27.2058 13.912 27.2101 13.9104 27.2143 13.9084C27.5959 13.7226 27.833 13.3435 27.833 12.9191V11.9594C27.833 11.3528 27.3395 10.8593 26.7328 10.8593H26.2996V6.97169C26.2996 6.71281 26.0898 6.50294 25.8309 6.50294H25.3526V6.22388C25.9036 6.02994 26.2996 5.50462 26.2996 4.88819C26.2996 3.26931 25.2697 2.15206 25.2258 2.10531C25.1372 2.01075 25.0135 1.95712 24.8838 1.95712C24.7542 1.95712 24.6305 2.01075 24.5418 2.10531C24.498 2.15206 23.468 3.26931 23.468 4.88819C23.468 5.50456 23.8641 6.02994 24.415 6.22388V6.50294H23.9368C23.6778 6.50294 23.468 6.71281 23.468 6.97169V10.8593H21.8575V5.64587C21.8575 5.387 21.6477 5.17712 21.3888 5.17712H20.9105V4.89806C21.4615 4.70413 21.8575 4.17881 21.8575 3.56238C21.8575 1.9435 20.8276 0.82625 20.7837 0.7795C20.6951 0.684938 20.5713 0.631312 20.4417 0.631312C20.3121 0.631312 20.1883 0.684938 20.0997 0.7795C20.0559 0.82625 19.0259 1.9435 19.0259 3.56238C19.0259 4.17875 19.422 4.70413 19.9729 4.89806V5.17712H19.4946C19.2357 5.17712 19.0259 5.387 19.0259 5.64587V10.8593H17.4154V5.0145C17.4154 4.75563 17.2056 4.54575 16.9466 4.54575H16.4688V4.26669C17.0197 4.07275 17.4158 3.54744 17.4158 2.931C17.4158 1.31212 16.3858 0.194875 16.342 0.148125C16.2534 0.053625 16.1296 0 16 0C15.8705 0 15.7466 0.053625 15.658 0.148188C15.6142 0.194938 14.5842 1.31219 14.5842 2.93106C14.5842 3.5475 14.9803 4.07281 15.5312 4.26675V4.54581H15.053C14.7941 4.54581 14.5842 4.75569 14.5842 5.01456V10.8593H12.9738V5.64587C12.9738 5.387 12.7639 5.17712 12.505 5.17712H12.0268V4.89806C12.5777 4.70413 12.9738 4.17881 12.9738 3.56238C12.9738 1.9435 11.9438 0.82625 11.9 0.7795C11.8113 0.684938 11.6876 0.631312 11.558 0.631312C11.4283 0.631312 11.3046 0.684938 11.216 0.7795C11.1721 0.82625 10.1421 1.9435 10.1421 3.56238C10.1421 4.17881 10.5383 4.70413 11.0891 4.89806V5.17712H10.6109C10.352 5.17712 10.1421 5.387 10.1421 5.64587V10.8593H8.53171V6.97175C8.53171 6.71287 8.32183 6.503 8.06296 6.503H7.58464V6.22394C8.13558 6.03 8.53171 5.50469 8.53171 4.88825C8.53171 3.26937 7.50171 2.15213 7.45789 2.10538C7.36927 2.01081 7.24552 1.95719 7.11589 1.95719C6.98627 1.95719 6.86252 2.01081 6.7739 2.10538C6.73008 2.15213 5.70008 3.26937 5.70008 4.88825C5.70008 5.50469 6.09621 6.03 6.64708 6.22394V6.503H6.16883C5.90996 6.503 5.70008 6.71287 5.70008 6.97175V10.8593H5.26689C4.66027 10.8593 4.16677 11.3528 4.16677 11.9594V12.9194C4.16677 13.3439 4.40383 13.7229 4.78552 13.9087C4.78971 13.9107 4.79396 13.9124 4.79814 13.9144V19.0669H3.37296C2.76633 19.0669 2.27283 19.5604 2.27283 20.1671V21.1271C2.27283 21.5515 2.50989 21.9306 2.89158 22.1164C2.89577 22.1184 2.90002 22.1201 2.90421 22.1221V28.5373H0.46877C0.306332 28.5373 0.155457 28.6214 0.0700198 28.7596C-0.0154177 28.8978 -0.0231677 29.0703 0.0495198 29.2156L1.31221 31.7411C1.39158 31.8999 1.55389 32.0002 1.73146 32.0002H30.2686C30.4461 32.0002 30.6085 31.8999 30.6878 31.7411L31.9505 29.2156C32.0232 29.0702 32.0154 28.8976 31.93 28.7594ZM24.8841 3.23C25.1093 3.613 25.3623 4.19712 25.3623 4.88825C25.3623 5.152 25.1478 5.3665 24.8841 5.3665C24.6204 5.3665 24.4058 5.15194 24.4058 4.88825C24.4058 4.19706 24.6588 3.613 24.8841 3.23ZM20.442 1.90412C20.6673 2.28712 20.9203 2.87125 20.9203 3.56238C20.9203 3.82613 20.7057 4.04063 20.442 4.04063C20.1783 4.04063 19.9638 3.82606 19.9638 3.56238C19.9638 2.87125 20.2168 2.28712 20.442 1.90412ZM16 1.27281C16.2253 1.65581 16.4783 2.23994 16.4783 2.93106C16.4783 3.19481 16.2637 3.40931 16 3.40931C15.7363 3.40931 15.5218 3.19475 15.5218 2.93106C15.5218 2.23987 15.7748 1.65581 16 1.27281ZM11.558 1.90412C11.7833 2.28712 12.0363 2.87125 12.0363 3.56238C12.0363 3.82613 11.8217 4.04063 11.558 4.04063C11.2943 4.04063 11.0798 3.82606 11.0798 3.56238C11.0797 2.87125 11.3328 2.28712 11.558 1.90412ZM7.11739 3.22756C7.34214 3.608 7.59427 4.19044 7.59427 4.88825C7.59427 5.152 7.37971 5.3665 7.11596 5.3665C6.85221 5.3665 6.63771 5.15194 6.63771 4.88825C6.63771 4.19562 6.89189 3.6105 7.11739 3.22756ZM4.05058 21.9935C4.22127 21.8597 4.35427 21.7721 4.63615 21.7721C4.94533 21.7721 5.07527 21.8761 5.29058 22.0483C5.54465 22.2514 5.89258 22.5298 6.53058 22.5298C7.16858 22.5298 7.51646 22.2514 7.77046 22.0482C7.98571 21.876 8.11558 21.7721 8.42471 21.7721C8.73389 21.7721 8.86377 21.8761 9.07902 22.0483C9.33302 22.2514 9.68096 22.5298 10.319 22.5298C10.957 22.5298 11.3048 22.2514 11.5588 22.0482C11.7741 21.876 11.904 21.7721 12.2131 21.7721C12.5221 21.7721 12.6521 21.8761 12.8673 22.0482C13.1213 22.2514 13.4693 22.5298 14.1072 22.5298C14.7451 22.5298 15.093 22.2514 15.347 22.0482C15.5621 21.876 15.692 21.7721 16.0011 21.7721C16.3101 21.7721 16.44 21.8761 16.6551 22.0482C16.9091 22.2514 17.257 22.5298 17.8949 22.5298C18.5328 22.5298 18.8806 22.2514 19.1346 22.0482C19.3497 21.8761 19.4796 21.7721 19.7886 21.7721C20.0976 21.7721 20.2275 21.8761 20.4428 22.0482C20.6968 22.2514 21.0447 22.5298 21.6826 22.5298C22.3205 22.5298 22.6684 22.2514 22.9225 22.0482C23.1376 21.876 23.2675 21.7721 23.5766 21.7721C23.8856 21.7721 24.0155 21.8761 24.2308 22.0482C24.4848 22.2514 24.8326 22.5298 25.4706 22.5298C26.1085 22.5298 26.4563 22.2514 26.7103 22.0482C26.9255 21.876 27.0554 21.7721 27.3645 21.7721C27.6461 21.7721 27.779 21.8596 27.9494 21.9932C28.0151 22.0447 28.0853 22.0876 28.1583 22.1224V23.8652H7.66071C7.40183 23.8652 7.19196 24.0751 7.19196 24.3339C7.19196 24.5928 7.40183 24.8027 7.66071 24.8027H28.1583V25.7593H3.84171V24.8027H5.46765C5.72652 24.8027 5.9364 24.5928 5.9364 24.3339C5.9364 24.0751 5.72652 23.8652 5.46765 23.8652H3.84171V22.1225C3.91471 22.0878 3.98483 22.0449 4.05058 21.9935ZM3.84171 26.6967H28.1583V28.5371H3.84171V26.6967ZM5.73577 16.1531H9.04521C9.30408 16.1531 9.51396 15.9432 9.51396 15.6843C9.51396 15.4254 9.30408 15.2156 9.04521 15.2156H5.73577V13.9149C5.80877 13.8802 5.87889 13.8373 5.94458 13.7858C6.11527 13.6521 6.24821 13.5645 6.53008 13.5645C6.83927 13.5645 6.96921 13.6684 7.18452 13.8406C7.43858 14.0438 7.78652 14.3221 8.42452 14.3221C9.06252 14.3221 9.4104 14.0438 9.6644 13.8406C9.87965 13.6684 10.0095 13.5646 10.3186 13.5646C10.6278 13.5646 10.7576 13.6685 10.9729 13.8406C11.2269 14.0438 11.5748 14.3221 12.2128 14.3221C12.8508 14.3221 13.1987 14.0438 13.4527 13.8406C13.6679 13.6684 13.7978 13.5646 14.107 13.5646C14.4161 13.5646 14.546 13.6685 14.7612 13.8406C15.0152 14.0438 15.3631 14.3221 16.0011 14.3221C16.639 14.3221 16.9868 14.0438 17.2408 13.8406C17.456 13.6684 17.5859 13.5646 17.895 13.5646C18.204 13.5646 18.3338 13.6685 18.549 13.8406C18.803 14.0438 19.1509 14.3222 19.7888 14.3222C20.4266 14.3222 20.7745 14.0439 21.0285 13.8406C21.2436 13.6685 21.3735 13.5646 21.6825 13.5646C21.9915 13.5646 22.1214 13.6685 22.3366 13.8406C22.5906 14.0438 22.9386 14.3221 23.5765 14.3221C24.2145 14.3221 24.5623 14.0438 24.8163 13.8406C25.0315 13.6684 25.1614 13.5645 25.4705 13.5645C25.7521 13.5645 25.8848 13.652 26.0553 13.7856C26.121 13.8371 26.1912 13.8799 26.2642 13.9147V15.2156H11.2366C10.9778 15.2156 10.7679 15.4254 10.7679 15.6843C10.7679 15.9432 10.9778 16.1531 11.2366 16.1531H26.2643V17.1096H5.73577V16.1531ZM24.4058 7.44044H25.3623V10.8593H24.4058V7.44044ZM19.9638 6.11462H20.9203V10.8593H19.9638V6.11462ZM15.5218 5.48325H16.4783V10.8593H15.5218V5.48325ZM11.0797 6.11462H12.0363V10.8593H11.0797V6.11462ZM6.63771 7.44044H7.59427V10.8593H6.63771V7.44044ZM5.10446 11.9594C5.10446 11.8697 5.1774 11.7968 5.26708 11.7968H26.733C26.8227 11.7968 26.8956 11.8697 26.8956 11.9594V12.9192C26.8956 13.0078 26.8382 13.0489 26.804 13.0656C26.77 13.0822 26.7026 13.1017 26.6335 13.0476C26.3546 12.8292 26.0208 12.6271 25.4705 12.6271C24.8326 12.6271 24.4848 12.9054 24.2307 13.1086C24.0156 13.2808 23.8856 13.3847 23.5766 13.3847C23.2675 13.3847 23.1376 13.2808 22.9224 13.1086C22.6684 12.9054 22.3205 12.6271 21.6825 12.6271C21.0446 12.6271 20.6968 12.9054 20.4428 13.1087C20.2277 13.2808 20.0978 13.3848 19.7889 13.3848C19.4799 13.3848 19.35 13.2808 19.1348 13.1087C18.8808 12.9055 18.5329 12.6272 17.895 12.6272C17.2571 12.6272 16.9093 12.9055 16.6552 13.1088C16.4401 13.2809 16.3101 13.3848 16.0011 13.3848C15.692 13.3848 15.5621 13.2809 15.3469 13.1088C15.0929 12.9056 14.745 12.6272 14.107 12.6272C13.4691 12.6272 13.1212 12.9056 12.8671 13.1088C12.6519 13.2809 12.522 13.3848 12.2129 13.3848C11.9038 13.3848 11.7738 13.2809 11.5586 13.1088C11.3046 12.9056 10.9566 12.6272 10.3187 12.6272C9.68071 12.6272 9.33283 12.9056 9.07883 13.1088C8.86358 13.2809 8.73371 13.3848 8.42458 13.3848C8.11533 13.3848 7.98539 13.2809 7.77014 13.1087C7.51608 12.9055 7.16815 12.6272 6.53015 12.6272C5.97958 12.6272 5.64552 12.8294 5.36652 13.048C5.29746 13.1021 5.23015 13.0825 5.19615 13.0659C5.16196 13.0492 5.10452 13.0081 5.10452 12.9195L5.10446 11.9594ZM3.21039 20.1669C3.21039 20.0772 3.28333 20.0043 3.37302 20.0043H22.125C22.384 20.0043 22.5938 19.7944 22.5938 19.5356C22.5938 19.2767 22.384 19.0668 22.125 19.0668H5.73577V18.0471H26.2642V19.0668H24.3203C24.0613 19.0668 23.8515 19.2767 23.8515 19.5356C23.8515 19.7944 24.0613 20.0043 24.3203 20.0043H28.627C28.7166 20.0043 28.7896 20.0772 28.7896 20.1669V21.1268C28.7896 21.2153 28.7321 21.2565 28.698 21.2732C28.6639 21.2898 28.5966 21.3094 28.5275 21.2553C28.2487 21.0368 27.9148 20.8346 27.3644 20.8346C26.7265 20.8346 26.3786 21.1129 26.1246 21.3162C25.9095 21.4883 25.7795 21.5923 25.4705 21.5923C25.1615 21.5923 25.0316 21.4883 24.8164 21.3162C24.5624 21.113 24.2145 20.8346 23.5766 20.8346C22.9386 20.8346 22.5908 21.1129 22.3367 21.3162C22.1215 21.4884 21.9916 21.5923 21.6826 21.5923C21.3735 21.5923 21.2436 21.4883 21.0284 21.3162C20.7744 21.113 20.4265 20.8346 19.7885 20.8346C19.1506 20.8346 18.8028 21.1129 18.5488 21.3162C18.3337 21.4883 18.2038 21.5923 17.8948 21.5923C17.5858 21.5923 17.456 21.4883 17.2408 21.3162C16.9868 21.1129 16.6389 20.8346 16.001 20.8346C15.3631 20.8346 15.0152 21.1129 14.7612 21.3162C14.546 21.4884 14.4161 21.5923 14.1071 21.5923C13.798 21.5923 13.6681 21.4883 13.4529 21.3162C13.1989 21.113 12.851 20.8346 12.213 20.8346C11.575 20.8346 11.2271 21.1129 10.9731 21.3162C10.7579 21.4884 10.628 21.5923 10.3189 21.5923C10.0098 21.5923 9.87983 21.4883 9.66458 21.3162C9.41052 21.113 9.06265 20.8346 8.42465 20.8346C7.78665 20.8346 7.43877 21.1129 7.18477 21.3162C6.96952 21.4884 6.83964 21.5923 6.53052 21.5923C6.22133 21.5923 6.09139 21.4883 5.87608 21.3161C5.62202 21.1129 5.27408 20.8346 4.63608 20.8346C4.08558 20.8346 3.75146 21.0369 3.47239 21.2555C3.40333 21.3096 3.33602 21.29 3.30202 21.2734C3.26783 21.2568 3.21039 21.2156 3.21039 21.127V20.1669ZM29.9788 31.0625H2.02114L1.22721 29.4746H30.7728L29.9788 31.0625Z" fill="#CB1B23"/>
</g>
<defs>
<clipPath id="clip0_281_600">
<rect width="32" height="32" fill="white"/>
</clipPath>
</defs>
</svg>
