<svg width="32" height="32" viewBox="0 0 32 32" fill="none" xmlns="http://www.w3.org/2000/svg">
<g clip-path="url(#clip0_281_589)">
<path d="M27.7142 16.0046C27.3478 13.7194 26.3264 11.6113 24.7515 9.89531C23.2639 8.27425 21.3856 7.11406 19.2919 6.51638C19.4259 6.14575 19.4993 5.74644 19.4993 5.33019C19.4993 3.77494 18.4791 2.45406 17.073 1.99994C17.5089 1.43825 18.2561 0.9375 19.5356 0.9375C19.7945 0.9375 20.0044 0.727625 20.0044 0.46875C20.0044 0.209875 19.7945 0 19.5356 0C17.5904 0 16.601 0.945437 16.1137 1.73856C16.0944 1.76987 16.076 1.80113 16.058 1.83244C16.0387 1.83213 16.0195 1.83094 16 1.83094C14.0705 1.83094 12.5008 3.40069 12.5008 5.33019C12.5008 5.75262 12.576 6.15781 12.7139 6.53306C10.6394 7.13687 8.77823 8.29412 7.30386 9.90369C5.74405 11.6065 4.72773 13.6962 4.35567 15.9604C3.48667 16.485 2.9043 17.4384 2.9043 18.5254C2.9043 18.5576 2.90761 18.5897 2.91417 18.6213L3.45605 21.2173C3.50898 21.4707 3.7573 21.6334 4.01073 21.5804C4.26417 21.5274 4.42667 21.2792 4.3738 21.0257L3.8423 18.4794C3.86686 17.3665 4.7798 16.4688 5.89842 16.4688C7.03248 16.4688 7.95505 17.3914 7.95505 18.5254C7.95505 18.5421 7.95592 18.5587 7.95767 18.5752L9.2913 31.0625H8.14048C7.1718 31.0625 6.32511 30.3743 6.12723 29.4261L4.82461 23.1855C4.77167 22.9321 4.52348 22.7695 4.26998 22.8224C4.01655 22.8753 3.85398 23.1236 3.90686 23.3771L5.20948 29.6177C5.49767 30.9981 6.73036 32 8.14055 32H23.8596C25.2698 32 26.5025 30.9981 26.7906 29.6176L28.0932 23.3771C28.1461 23.1236 27.9836 22.8753 27.7301 22.8224C27.477 22.7696 27.2284 22.932 27.1755 23.1854L25.8729 29.426C25.6749 30.3743 24.8282 31.0625 23.8595 31.0625H22.7088C22.7088 31.0625 24.045 18.5421 24.045 18.5254C24.045 17.3914 24.9677 16.4688 26.1017 16.4688C27.2204 16.4688 28.1333 17.3666 28.1578 18.4794L27.6263 21.0257C27.5734 21.2791 27.7359 21.5274 27.9894 21.5804C28.2427 21.6332 28.4911 21.4707 28.544 21.2173L29.0859 18.6213C29.0925 18.5898 29.0958 18.5576 29.0958 18.5254C29.0959 17.4679 28.5443 16.5374 27.7142 16.0046ZM24.3702 11.2649C24.3702 11.7026 24.014 12.0588 23.5763 12.0588C23.1385 12.0588 22.7823 11.7026 22.7823 11.2649C22.7823 10.8271 23.1385 10.4709 23.5763 10.4709C24.014 10.4709 24.3702 10.8271 24.3702 11.2649ZM15.6592 2.79181C15.5523 3.17675 15.5334 3.45012 15.5322 3.47006C15.516 3.72769 15.7114 3.94888 15.9689 3.96606C15.9795 3.96675 15.99 3.96712 16.0004 3.96712C16.2444 3.96712 16.4502 3.77737 16.4677 3.5305C16.4702 3.49625 16.4938 3.21281 16.621 2.84506C17.7344 3.12337 18.5618 4.13188 18.5618 5.33031C18.5618 6.74288 17.4126 7.89206 16 7.89206C14.5875 7.89206 13.4383 6.74288 13.4383 5.33031C13.4383 4.03325 14.4074 2.95906 15.6592 2.79181ZM16 8.82944C17.1707 8.82944 18.2082 8.25094 18.8438 7.36544C19.866 7.63825 20.8287 8.05769 21.7088 8.59894C21.4197 8.80206 21.077 8.90213 20.672 8.90213C18.7365 8.90213 17.8534 9.67019 17.2086 10.231C16.7339 10.6438 16.4646 10.8593 16 10.8593C15.5354 10.8593 15.266 10.6439 14.7914 10.231C14.1466 9.67019 13.2635 8.90213 11.328 8.90213C10.9438 8.90213 10.6082 8.80681 10.3243 8.61919C11.1977 8.07731 12.1528 7.65594 13.1664 7.37981C13.8029 8.25719 14.8356 8.82944 16 8.82944ZM7.80455 10.7693C7.81392 10.7585 8.06036 10.4709 8.42386 10.4709C8.86167 10.4709 9.21786 10.8271 9.21786 11.2649C9.21786 11.7026 8.86167 12.0588 8.42386 12.0588C7.98611 12.0588 7.62992 11.7026 7.62992 11.2649C7.62986 11.0774 7.69548 10.9053 7.80455 10.7693ZM8.4238 16.4783C7.98605 16.4783 7.62986 16.1221 7.62986 15.6843C7.62986 15.2466 7.98605 14.8904 8.4238 14.8904C8.86161 14.8904 9.2178 15.2466 9.2178 15.6843C9.2178 16.1221 8.86161 16.4783 8.4238 16.4783ZM10.2342 31.0625L8.89273 18.5017C8.90548 17.3785 9.82311 16.4688 10.9493 16.4688C12.0834 16.4688 13.0059 17.3914 13.0059 18.5254C13.0059 18.5338 13.6747 31.0625 13.6747 31.0625H10.2342ZM17.3866 31.0625H14.6135L13.9434 18.5135C13.9498 17.3849 14.8699 16.4688 16 16.4688C17.1302 16.4688 18.0503 17.3849 18.0567 18.5135L17.3866 31.0625ZM18.9942 18.5254C18.9942 17.3914 19.9169 16.4688 21.0509 16.4688C22.177 16.4688 23.0947 17.3785 23.1074 18.5017L21.7659 31.0625H18.3254C18.3254 31.0625 18.9942 18.5338 18.9942 18.5254ZM23.5763 16.4783C23.1385 16.4783 22.7823 16.1221 22.7823 15.6843C22.7823 15.2466 23.1385 14.8904 23.5763 14.8904C24.014 14.8904 24.3702 15.2466 24.3702 15.6843C24.3702 16.1221 24.014 16.4783 23.5763 16.4783ZM25.3066 15.6392C25.2825 14.7053 24.5159 13.9529 23.5763 13.9529C22.6367 13.9529 21.87 14.7053 21.846 15.6392C21.5926 15.5694 21.3262 15.5312 21.0509 15.5312C19.9904 15.5312 19.0576 16.0859 18.5255 16.9199C17.9934 16.0859 17.0605 15.5312 16 15.5312C14.9395 15.5312 14.0067 16.0859 13.4747 16.9199C12.9426 16.0859 12.0098 15.5312 10.9492 15.5312C10.6739 15.5312 10.4075 15.5694 10.1542 15.6392C10.1301 14.7054 9.36348 13.9529 8.42386 13.9529C7.48423 13.9529 6.71761 14.7054 6.69355 15.6392C6.44017 15.5694 6.17373 15.5312 5.89848 15.5312C5.72298 15.5312 5.55117 15.5473 5.38386 15.5764C5.6628 14.2988 6.1718 13.0969 6.86611 12.0201C7.14717 12.5974 7.73973 12.9963 8.42386 12.9963C9.37861 12.9963 10.1554 12.2196 10.1554 11.2649C10.1554 10.4974 9.6533 9.84537 8.96042 9.61894C9.13948 9.46525 9.32355 9.31725 9.5123 9.17513C10.0025 9.61131 10.622 9.83956 11.328 9.83956C12.9129 9.83956 13.5551 10.3981 14.1761 10.9383C14.6614 11.3603 15.1631 11.7968 16 11.7968C16.837 11.7968 17.3387 11.3604 17.824 10.9383C18.445 10.3981 19.0872 9.83956 20.672 9.83956C21.393 9.83956 22.0227 9.60175 22.5174 9.14762C22.713 9.29344 22.9036 9.44556 23.0887 9.60381C22.3707 9.81494 21.8448 10.4795 21.8448 11.2649C21.8448 12.2196 22.6215 12.9964 23.5763 12.9964C24.2835 12.9964 24.8926 12.57 25.1611 11.9611C25.8758 13.0554 26.3984 14.2817 26.6815 15.5882C26.4939 15.5512 26.3 15.5313 26.1017 15.5313C25.8264 15.5313 25.56 15.5694 25.3066 15.6392Z" fill="#CB1B23"/>
<path d="M12.7801 11.4906C11.8253 11.4906 11.0486 12.2674 11.0486 13.2221C11.0486 14.1767 11.8253 14.9535 12.7801 14.9535C13.7348 14.9535 14.5115 14.1767 14.5115 13.2221C14.5115 12.2674 13.7348 11.4906 12.7801 11.4906ZM12.7801 14.016C12.3423 14.016 11.9861 13.6598 11.9861 13.2221C11.9861 12.7843 12.3423 12.4281 12.7801 12.4281C13.2178 12.4281 13.574 12.7843 13.574 13.2221C13.574 13.6598 13.2178 14.016 12.7801 14.016Z" fill="#CB1B23"/>
<path d="M19.22 11.4906C18.2653 11.4906 17.4885 12.2674 17.4885 13.2221C17.4885 14.1767 18.2653 14.9535 19.22 14.9535C20.1747 14.9535 20.9515 14.1767 20.9515 13.2221C20.9515 12.2674 20.1747 11.4906 19.22 11.4906ZM19.22 14.016C18.7822 14.016 18.426 13.6598 18.426 13.2221C18.426 12.7843 18.7822 12.4281 19.22 12.4281C19.6578 12.4281 20.014 12.7843 20.014 13.2221C20.014 13.6598 19.6578 14.016 19.22 14.016Z" fill="#CB1B23"/>
</g>
<defs>
<clipPath id="clip0_281_589">
<rect width="32" height="32" fill="white"/>
</clipPath>
</defs>
</svg>
