<svg width="32" height="32" viewBox="0 0 32 32" fill="none" xmlns="http://www.w3.org/2000/svg">
<path d="M28.5866 19.2205L26.8794 6.53806C27.5782 6.31513 28.0857 5.65994 28.0857 4.88825V1.09375C28.0857 0.490687 27.595 0 26.992 0H22.052C21.7931 0 21.5832 0.209875 21.5832 0.46875C21.5832 0.727625 21.7931 0.9375 22.052 0.9375H26.992C27.0781 0.9375 27.1482 1.00762 27.1482 1.09375V4.88819C27.1482 5.32594 26.792 5.68213 26.3542 5.68213H17.4159V0.9375H19.8572C20.1161 0.9375 20.326 0.727625 20.326 0.46875C20.326 0.209875 20.1161 0 19.8572 0H5.01461C4.40799 0 3.91449 0.4935 3.91449 1.10012V4.88825C3.91449 5.65994 4.42205 6.31513 5.12086 6.53806L3.41361 19.2205C3.41086 19.2413 3.40942 19.2621 3.40942 19.283V31.5312C3.40942 31.7901 3.6193 32 3.87817 32H28.122C28.3809 32 28.5908 31.7901 28.5908 31.5312V19.283C28.5908 19.2621 28.5894 19.2412 28.5866 19.2205ZM17.0382 20.1478C17.1674 20.0606 17.3246 20.0409 17.4694 20.0936C17.6142 20.1463 17.722 20.2624 17.7649 20.4123C17.8345 20.655 18.0841 20.7989 18.3289 20.7379C18.48 20.7001 18.6345 20.7354 18.7526 20.8345C18.8707 20.9336 18.9322 21.0795 18.9213 21.2349C18.9037 21.4868 19.0888 21.7074 19.3399 21.7338C19.4949 21.7501 19.6279 21.836 19.705 21.9695C19.7821 22.103 19.79 22.2612 19.7266 22.4035C19.6239 22.6342 19.7224 22.9048 19.9493 23.0155C20.0894 23.0838 20.185 23.2101 20.2118 23.3619C20.2386 23.5136 20.1919 23.665 20.0836 23.7771C19.9082 23.9587 19.9082 24.2467 20.0836 24.4283C20.1918 24.5404 20.2385 24.6918 20.2118 24.8436C20.185 24.9954 20.0894 25.1216 19.9494 25.1899C19.7224 25.3006 19.6239 25.5712 19.7266 25.8019C19.79 25.9442 19.7821 26.1025 19.705 26.2359C19.628 26.3694 19.4949 26.4553 19.3399 26.4716C19.0887 26.498 18.9037 26.7186 18.9213 26.9705C18.9322 27.1259 18.8707 27.2719 18.7526 27.371C18.6345 27.4701 18.4802 27.5052 18.3289 27.4676C18.0837 27.4065 17.8345 27.5504 17.7649 27.7932C17.722 27.9429 17.6143 28.0591 17.4694 28.1118C17.3246 28.1644 17.1674 28.1448 17.0382 28.0576C16.8289 27.9164 16.5454 27.9665 16.3969 28.1707C16.3054 28.2968 16.1644 28.3691 16.0102 28.3691C15.8561 28.3691 15.7152 28.2967 15.6235 28.1707C15.532 28.0447 15.3892 27.9774 15.244 27.9774C15.1537 27.9774 15.0625 28.0035 14.9822 28.0576C14.8531 28.1447 14.6959 28.1644 14.551 28.1117C14.4062 28.059 14.2984 27.9428 14.2555 27.7931C14.1859 27.5502 13.9362 27.4063 13.6915 27.4674C13.5403 27.5052 13.3859 27.4699 13.2678 27.3709C13.1515 27.2733 13.0899 27.1294 13.0988 26.9761C13.1134 26.7243 12.9262 26.5061 12.6751 26.4823C12.5182 26.4674 12.3834 26.3813 12.3052 26.246C12.2282 26.1125 12.2203 25.9543 12.2837 25.812C12.3864 25.5813 12.2879 25.3107 12.061 25.2C11.9209 25.1317 11.8252 25.0054 11.7985 24.8536C11.7717 24.7018 11.8184 24.5504 11.9267 24.4384C12.1021 24.2567 12.1021 23.9687 11.9267 23.7871C11.8185 23.6751 11.7717 23.5237 11.7985 23.3719C11.8252 23.2201 11.9209 23.0939 12.061 23.0256C12.2879 22.9149 12.3864 22.6443 12.2837 22.4136C12.2203 22.2713 12.2281 22.1131 12.3052 21.9796C12.3823 21.8461 12.5154 21.7602 12.6703 21.7439C12.9214 21.7175 13.1065 21.4969 13.0889 21.245C13.078 21.0896 13.1395 20.9436 13.2576 20.8445C13.3757 20.7454 13.53 20.7102 13.6814 20.7479C13.9264 20.8089 14.1758 20.665 14.2454 20.4223C14.2883 20.2725 14.396 20.1564 14.5408 20.1037C14.6861 20.0508 14.8435 20.0707 14.9729 20.1584C15.1845 20.3017 15.472 20.2492 15.6191 20.0402C15.709 19.9125 15.8552 19.8362 16.0101 19.8362C16.1642 19.8362 16.3052 19.9085 16.3968 20.0345C16.5453 20.2389 16.8289 20.289 17.0382 20.1478ZM15.5219 29.2178C15.6767 29.2752 15.8417 29.3066 16.0102 29.3066C16.1714 29.3066 16.3294 29.2783 16.4784 29.2257V31.0625H15.5218V29.2178H15.5219ZM13.953 10.4073C13.1004 9.86825 11.9627 9.571 10.6884 9.571C9.39917 9.571 8.19249 9.88506 7.31424 10.4234V10.0194C8.11836 9.18081 9.31742 8.70312 10.6336 8.70312C11.9498 8.70312 13.1489 9.18081 13.953 10.0194V10.4073ZM12.791 10.8744C11.5129 11.353 9.78749 11.3568 8.50274 10.8846C9.13717 10.6449 9.89736 10.5085 10.6884 10.5085C11.4647 10.5085 12.1856 10.6386 12.791 10.8744ZM7.31424 11.5973C7.36692 11.5459 7.42317 11.496 7.48292 11.4476C8.32836 11.9124 9.45461 12.1756 10.6336 12.1756H10.6392C11.818 12.1747 12.9435 11.9109 13.788 11.4456C13.846 11.4942 13.9007 11.5448 13.953 11.5967V11.7507C13.4975 12.2261 12.9155 12.5851 12.2569 12.8075C12.2455 12.8107 12.2344 12.8145 12.2232 12.8187C11.7282 12.9816 11.1919 13.0689 10.6336 13.0689C9.31742 13.0689 8.11836 12.5913 7.31424 11.7526V11.5973ZM13.9217 13.0086C13.3944 13.9216 12.6998 15.3709 12.1769 17.3536L11.8879 16.6514C11.8119 16.4666 11.6264 16.3506 11.4277 16.3618L10.7875 16.3984C11.1345 15.7112 11.762 14.6214 12.6487 13.6648C13.1075 13.5009 13.5358 13.2805 13.9217 13.0086ZM14.8905 11.68V11.4104V10.0921H17.1097V11.4104V11.68H14.8905ZM19.3516 13.6648C20.2357 14.6188 20.8642 15.7102 21.212 16.3983L20.5726 16.3618C20.3734 16.3502 20.1884 16.4666 20.1124 16.6514L19.8234 17.3536C19.3004 15.3709 18.6059 13.9216 18.0786 13.0086C18.4644 13.2805 18.8927 13.5009 19.3516 13.6648ZM19.7771 12.8188C19.7659 12.8146 19.7547 12.8108 19.7432 12.8075C19.0847 12.5851 18.5027 12.2261 18.0472 11.7507V11.5967C18.0995 11.5447 18.1542 11.4942 18.2122 11.4456C19.0567 11.9109 20.1822 12.1748 21.361 12.1756H21.3666C22.5455 12.1756 23.6719 11.9124 24.5173 11.4476C24.577 11.4959 24.6333 11.5459 24.686 11.5973V11.7527C23.8819 12.5913 22.6828 13.069 21.3666 13.069C20.8084 13.069 20.272 12.9817 19.7771 12.8188ZM19.2092 10.8743C19.8146 10.6386 20.5355 10.5084 21.3118 10.5084C22.1028 10.5084 22.863 10.6449 23.4975 10.8845C22.2127 11.3567 20.4874 11.3529 19.2092 10.8743ZM24.686 10.4234C23.8077 9.88506 22.6011 9.571 21.3119 9.571C21.3119 9.571 21.3117 9.571 21.3119 9.571C20.0376 9.571 18.8997 9.86831 18.0473 10.4073V10.0194C18.8514 9.18081 20.0505 8.70312 21.3667 8.70312C22.6829 8.70312 23.8819 9.18081 24.686 10.0194V10.4234H24.686ZM16.4784 9.15462H15.5218V0.9375H16.4784V9.15462ZM4.34692 19.3144L6.05586 6.61969H8.40636C8.66524 6.61969 8.87511 6.40981 8.87511 6.15094C8.87511 5.89206 8.66524 5.68219 8.40636 5.68219H5.64592C5.20811 5.68219 4.85192 5.326 4.85192 4.88825V1.10012C4.85192 1.01044 4.92486 0.9375 5.01455 0.9375H14.5843V5.68219H10.5952C10.3364 5.68219 10.1265 5.89206 10.1265 6.15094C10.1265 6.40981 10.3364 6.61969 10.5952 6.61969H14.5843V9.15462H14.4217C14.4173 9.15462 14.413 9.15519 14.4087 9.15525C13.4385 8.26681 12.0915 7.76562 10.6335 7.76562C8.98217 7.76562 7.47286 8.40825 6.49261 9.52875C6.41786 9.61419 6.37667 9.72387 6.37667 9.83737V11.9347C6.37667 12.0482 6.41786 12.1579 6.49261 12.2434C7.47286 13.3639 8.98217 14.0065 10.6335 14.0065C10.8147 14.0065 10.994 13.9983 11.1712 13.9831C10.1534 15.3593 9.62542 16.6692 9.59817 16.7379C9.53905 16.8866 9.55992 17.0553 9.65361 17.1852C9.74724 17.315 9.90074 17.3882 10.0605 17.379L11.1479 17.3169L11.8732 19.079C11.946 19.256 12.1181 19.3694 12.3064 19.3694C12.3221 19.3694 12.338 19.3686 12.3539 19.367C12.5601 19.3461 12.7282 19.1922 12.767 18.9885C13.2237 16.5958 13.9924 14.84 14.5842 13.7534V19.1439C14.461 19.1542 14.3385 19.1799 14.2202 19.2229C13.9237 19.3309 13.6743 19.5355 13.5085 19.7977C13.1986 19.8102 12.8967 19.9238 12.655 20.1266C12.4133 20.3294 12.2489 20.607 12.1829 20.9101C11.8959 21.0278 11.651 21.2378 11.4934 21.5111C11.3355 21.7843 11.276 22.1014 11.3176 22.4088C11.0882 22.6176 10.9299 22.8987 10.8751 23.2094C10.8204 23.5201 10.8729 23.8384 11.017 24.1131C10.8729 24.3877 10.8204 24.706 10.8751 25.0168C10.9299 25.3274 11.0881 25.6086 11.3175 25.8173C11.276 26.1247 11.3355 26.4418 11.4933 26.715C11.654 26.9934 11.9039 27.2056 12.1969 27.322C12.2654 27.6189 12.4284 27.8906 12.6652 28.0893C12.9069 28.2922 13.2087 28.4057 13.5187 28.4182C13.6845 28.6804 13.9339 28.8851 14.2303 28.9929C14.3454 29.0348 14.4644 29.0606 14.5842 29.0714V31.0625H4.34692V19.3144ZM27.6533 31.0625H17.4159V29.0723C17.5425 29.0627 17.6685 29.037 17.79 28.9928C18.0865 28.8848 18.3359 28.6802 18.5017 28.418C18.8116 28.4056 19.1135 28.2919 19.3552 28.0891C19.5969 27.8864 19.7613 27.6087 19.8274 27.3056C20.1144 27.1879 20.3592 26.9779 20.517 26.7046C20.6747 26.4314 20.7342 26.1144 20.6927 25.8069C20.9221 25.5982 21.0803 25.3171 21.1351 25.0063C21.1899 24.6956 21.1374 24.3773 20.9932 24.1027C21.1374 23.828 21.1899 23.5097 21.1351 23.1991C21.0803 22.8883 20.922 22.6073 20.6927 22.3984C20.7342 22.0911 20.6747 21.774 20.517 21.5008C20.3592 21.2275 20.1144 21.0175 19.8274 20.8997C19.7612 20.5967 19.5969 20.3191 19.3552 20.1163C19.1135 19.9135 18.8117 19.7999 18.5017 19.7874C18.3359 19.5252 18.0865 19.3206 17.79 19.2126C17.6685 19.1684 17.5425 19.1427 17.4159 19.1331V17.4578C17.4159 17.1989 17.206 16.9891 16.9471 16.9891C16.6882 16.9891 16.4784 17.1989 16.4784 17.4578V18.9796C16.3294 18.9271 16.1714 18.8988 16.0102 18.8988C15.8414 18.8988 15.6765 18.9299 15.5219 18.987V12.6175H16.4784V15.2706C16.4784 15.5294 16.6883 15.7393 16.9472 15.7393C17.2061 15.7393 17.4159 15.5294 17.4159 15.2706V13.7487C18.0068 14.8319 18.7744 16.5853 19.2331 18.9884C19.272 19.1921 19.44 19.346 19.6463 19.3669C19.6622 19.3686 19.678 19.3693 19.6937 19.3693C19.882 19.3693 20.0542 19.2559 20.127 19.0789L20.8523 17.3168L21.9396 17.3789C22.099 17.388 22.2529 17.315 22.3465 17.1851C22.4402 17.0553 22.4611 16.8866 22.402 16.7378C22.3747 16.6692 21.8468 15.3592 20.829 13.983C21.0062 13.9982 21.1855 14.0064 21.3666 14.0064C23.018 14.0064 24.5273 13.3638 25.5075 12.2433C25.5823 12.1579 25.6235 12.0482 25.6235 11.9347V9.83731C25.6235 9.72381 25.5823 9.61412 25.5075 9.52869C24.5273 8.40819 23.018 7.76556 21.3666 7.76556C19.9086 7.76556 18.5617 8.26675 17.5915 9.15519C17.5871 9.15506 17.5829 9.15456 17.5785 9.15456H17.4159V6.61963H25.9444L27.6533 19.3144V31.0625Z" fill="#CB1B23"/>
<path d="M13.0059 24.1129C13.0059 25.7639 14.349 27.1071 16 27.1071C17.651 27.1071 18.9942 25.7639 18.9942 24.1129C18.9942 22.4619 17.651 21.1187 16 21.1187C14.349 21.1187 13.0059 22.4619 13.0059 24.1129ZM18.0567 24.1129C18.0567 25.2469 17.1341 26.1696 16 26.1696C14.866 26.1696 13.9434 25.2469 13.9434 24.1129C13.9434 22.9788 14.866 22.0562 16 22.0562C17.1341 22.0562 18.0567 22.9788 18.0567 24.1129Z" fill="#CB1B23"/>
</svg>
