<svg width="32" height="32" viewBox="0 0 32 32" fill="none" xmlns="http://www.w3.org/2000/svg">
<g clip-path="url(#clip0_281_607)">
<path d="M22.9763 18.5515L12.0779 29.45L1.13171 18.5039L4.98504 14.6505C5.16811 14.4675 5.16811 14.1707 4.98504 13.9876C4.80191 13.8046 4.50515 13.8046 4.32208 13.9876L0.137302 18.1724C-0.0457673 18.3554 -0.0457673 18.6523 0.137302 18.8353L11.7464 30.4444C11.8343 30.5323 11.9535 30.5817 12.0779 30.5817C12.2022 30.5817 12.3214 30.5323 12.4094 30.4444L23.6394 19.2144C23.8224 19.0313 23.8224 18.7345 23.6394 18.5515C23.4562 18.3685 23.1595 18.3684 22.9763 18.5515Z" fill="#CB1B23"/>
<path d="M19.866 11.5195L19.0623 10.7158C18.8462 10.4996 18.5415 10.4258 18.264 10.4925L18.2609 10.4627C18.2202 10.0683 18.0433 9.69673 17.763 9.41641L17.4549 9.10834C17.2471 8.90052 16.9708 8.78608 16.6769 8.78608C16.3831 8.78608 16.1068 8.90052 15.899 9.10834L15.3191 9.6883C15.1443 9.60336 14.9279 9.63298 14.7827 9.77811L13.4432 11.1176L9.87119 14.6896C9.68812 14.8727 9.68812 15.1695 9.87119 15.3525L15.2293 20.7106C15.3208 20.8021 15.4408 20.8479 15.5608 20.8479C15.6807 20.8479 15.8007 20.8021 15.8923 20.7106L19.4643 17.1386L20.8038 15.7991C20.9489 15.654 20.9785 15.4376 20.8936 15.2628L21.4736 14.6828C21.6813 14.475 21.7958 14.1987 21.7958 13.9048C21.7958 13.6109 21.6813 13.3347 21.4736 13.1269L21.1655 12.8188C20.8852 12.5385 20.5136 12.3616 20.1192 12.3208L20.0901 12.3178C20.1055 12.2533 20.1144 12.1868 20.1144 12.1188C20.1143 11.8924 20.0261 11.6796 19.866 11.5195ZM12.8749 17.0304L15.784 14.1214L16.4605 14.7979L13.5514 17.707L12.8749 17.0304ZM16.2236 13.2351L16.9002 12.5586L18.0232 13.6816L17.3467 14.3582L16.2236 13.2351ZM19.1395 12.1188L18.4629 12.7954L17.7864 12.1188L18.4629 11.4422L19.1395 12.1188ZM16.7919 9.7713L17.1 10.0794C17.2286 10.2079 17.3096 10.3783 17.3283 10.5592L17.3932 11.1861L17.1234 11.4559L16.0003 10.3328L16.5619 9.7713C16.6253 9.70786 16.7286 9.70786 16.7919 9.7713ZM15.1142 10.7725L16.2372 11.8956L15.5606 12.5722L14.4375 11.449L15.1142 10.7725ZM13.7746 12.112L15.121 13.4584L12.2119 16.3674L10.8655 15.0211L13.7746 12.112ZM15.5606 19.7162L14.2143 18.3699L17.1234 15.4608L18.4698 16.8071L15.5606 19.7162ZM19.1327 16.1442L18.0096 15.0212L18.6861 14.3447L19.8092 15.4677L19.1327 16.1442ZM20.5024 13.4818L20.8105 13.7899C20.8739 13.8533 20.8739 13.9565 20.8105 14.02L20.2489 14.5815L19.1259 13.4584L19.3957 13.1886L20.0227 13.2535C20.2034 13.2721 20.3738 13.3532 20.5024 13.4818Z" fill="#CB1B23"/>
<path d="M8.86299 15.8919C8.73867 15.8919 8.61948 15.9413 8.53148 16.0292L7.19199 17.3687C7.00892 17.5518 7.00892 17.8486 7.19199 18.0316L12.5501 23.3897C12.638 23.4776 12.7572 23.527 12.8816 23.527C13.006 23.527 13.1251 23.4776 13.2131 23.3897L14.5526 22.0501C14.7356 21.8671 14.7356 21.5702 14.5526 21.3872L9.1945 16.0292C9.1065 15.9413 8.98731 15.8919 8.86299 15.8919ZM12.8816 22.3952L8.18646 17.7001L8.86299 17.0235L13.5581 21.7186L12.8816 22.3952Z" fill="#CB1B23"/>
<path d="M5.85263 18.7082C5.66956 18.8913 5.66956 19.1881 5.85263 19.3711L11.2107 24.7291C11.3023 24.8206 11.4223 24.8664 11.5422 24.8664C11.6622 24.8664 11.7822 24.8207 11.8737 24.7291C12.0568 24.546 12.0568 24.2492 11.8737 24.0662L6.51566 18.7082C6.33253 18.5252 6.03577 18.5252 5.85263 18.7082Z" fill="#CB1B23"/>
<path d="M4.51303 20.0477C4.32997 20.2307 4.32997 20.5276 4.51303 20.7106L9.87111 26.0687C9.96267 26.1602 10.0827 26.206 10.2026 26.206C10.3226 26.206 10.4426 26.1602 10.5341 26.0687C10.7172 25.8856 10.7172 25.5888 10.5341 25.4058L5.17606 20.0477C4.99293 19.8647 4.69617 19.8647 4.51303 20.0477Z" fill="#CB1B23"/>
<path d="M31.2721 2.14745C30.8019 1.67725 30.1768 1.4183 29.5118 1.4183C28.8468 1.4183 28.2217 1.67725 27.7503 2.1487L25.3383 4.57898L16.6775 1.98076C16.5123 1.9312 16.3333 1.97632 16.2113 2.09827L5.87558 12.4341C5.69251 12.6172 5.69251 12.914 5.87558 13.097C6.05872 13.2801 6.35548 13.2801 6.53855 13.097L16.6764 2.95911L25.0965 5.4852L26.2613 9.36772L24.7843 10.8497C24.4912 11.1428 24.1015 11.3042 23.6869 11.3042C23.3259 11.3042 22.9838 11.1817 22.7078 10.9565C22.9898 10.8413 23.254 10.6696 23.4826 10.441C24.4039 9.5196 24.4039 8.02042 23.4826 7.09908C23.0362 6.65275 22.4428 6.40693 21.8116 6.40693C21.1804 6.40693 20.5869 6.65275 20.1406 7.09908C19.2193 8.02048 19.2193 9.51967 20.1406 10.441H20.1407C20.5497 10.8501 21.0728 11.0771 21.6085 11.1229C21.6995 11.2607 21.8055 11.3914 21.9267 11.5126C22.3969 11.9828 23.022 12.2418 23.687 12.2418C24.352 12.2418 24.9772 11.9828 25.4479 11.5121L26.5675 10.3886L27.6226 13.9053L24.5208 17.007C24.3378 17.1901 24.3378 17.4869 24.5208 17.6699C24.6124 17.7614 24.7324 17.8072 24.8523 17.8072C24.9723 17.8072 25.0923 17.7615 25.1839 17.6699L28.4835 14.3702C28.6054 14.2483 28.6506 14.0693 28.6011 13.9041L27.3199 9.63367L31.2722 5.66796C32.2427 4.69736 32.2427 3.11805 31.2721 2.14745ZM22.8197 9.77811C22.6381 9.95974 22.4191 10.0808 22.1873 10.1438C22.0538 9.62848 22.1868 9.05784 22.5896 8.65501L23.094 8.15061C23.3497 8.68145 23.2593 9.33853 22.8197 9.77811ZM20.8036 9.77811C20.2477 9.22228 20.2477 8.31787 20.8036 7.76204C21.0729 7.49278 21.4309 7.34446 21.8117 7.34446C22.0302 7.34446 22.2405 7.39477 22.4315 7.48728L21.9266 7.99211C21.3618 8.55688 21.1264 9.32772 21.2189 10.0648C21.0685 9.99618 20.9272 9.90168 20.8036 9.77811ZM30.6086 5.00562L27.0136 8.61282L26.0021 5.24107L28.4145 2.81035C28.7076 2.51728 29.0973 2.35584 29.5118 2.35584C29.9263 2.35584 30.3161 2.51728 30.6092 2.81035C31.2142 3.41544 31.2142 4.39998 30.6086 5.00562Z" fill="#CB1B23"/>
</g>
<defs>
<clipPath id="clip0_281_607">
<rect width="32" height="32" fill="white"/>
</clipPath>
</defs>
</svg>
