<svg width="32" height="32" viewBox="0 0 32 32" fill="none" xmlns="http://www.w3.org/2000/svg">
<g clip-path="url(#clip0_281_584)">
<path d="M31.993 8.60019C31.9621 6.40762 31.1126 4.22456 29.4433 2.55525C27.7955 0.907437 25.6047 0 23.2744 0C20.9442 0 18.7534 0.907437 17.1056 2.55525L16.0002 3.66069L14.8947 2.55525C13.4357 1.09619 11.5841 0.263625 9.6768 0.05625C9.66118 0.0544375 9.5458 0.0421875 9.46562 0.035875C6.99199 -0.17275 4.44574 0.666625 2.55705 2.55525C0.850554 4.26175 0.000428596 6.50513 0.0061786 8.74669C0.0061786 8.77156 0.0026786 14.3267 0.0043661 14.3427C0.0529911 16.6016 0.958554 18.7235 2.55705 20.322L12.9904 30.7554C13.8203 31.5852 14.9101 32.0002 16.0002 32.0001C17.0901 31.9999 18.1802 31.5851 19.01 30.7554L23.5704 26.1949C23.7534 26.0119 23.7534 25.7151 23.5704 25.532C23.3872 25.3489 23.0905 25.3489 22.9074 25.532L18.347 30.0924C17.0531 31.3864 14.9474 31.3865 13.6534 30.0924L3.21999 19.659C1.78474 18.2238 0.975429 16.3156 0.940991 14.2859C0.940804 14.2752 0.940241 14.2646 0.939366 14.2541V12.6588C1.34593 13.4648 1.88474 14.2206 2.55699 14.8929L5.02074 17.3567C5.2038 17.5398 5.50062 17.5398 5.68368 17.3567C5.86674 17.1736 5.86674 16.8768 5.68368 16.6938L3.21993 14.23C2.28943 13.2995 1.64462 12.1899 1.28449 11.0114C1.41449 11.0835 1.55324 11.1542 1.70324 11.2232C2.1458 11.4266 2.50155 11.7823 2.70493 12.2249C3.1598 13.2147 3.68518 13.7694 4.26637 13.8736C4.32643 13.8843 4.39318 13.8912 4.46543 13.8912C4.73568 13.8912 5.08249 13.7939 5.44174 13.4346C5.84924 13.0271 6.15993 12.3956 6.39199 11.7448L6.81268 14.8383C6.83668 15.0148 6.95868 15.1624 7.12743 15.2193C7.17649 15.2359 7.22699 15.2439 7.27712 15.2439C7.39949 15.2439 7.5193 15.1959 7.60868 15.1066L8.67087 14.0444L10.1989 14.4264C10.3753 14.4704 10.5614 14.4086 10.6762 14.2674C10.7911 14.1264 10.8139 13.9316 10.7348 13.7677L8.3798 8.88956L8.89099 8.37838L13.7692 10.7334C13.834 10.7647 13.9037 10.78 13.9729 10.78C14.0787 10.78 14.1836 10.7442 14.2689 10.6748C14.4099 10.56 14.4719 10.374 14.4278 10.1975L14.0458 8.6695L15.108 7.60725C15.2339 7.48131 15.2777 7.29481 15.2207 7.12606C15.1639 6.95725 15.0162 6.83531 14.8397 6.81131L11.7463 6.39062C12.3971 6.15856 13.0286 5.84787 13.4361 5.44037C13.8914 4.98506 13.9261 4.54994 13.875 4.265C13.7708 3.68375 13.2161 3.15844 12.2263 2.70356C11.7837 2.50012 11.428 2.14444 11.2246 1.70187C11.1544 1.54912 11.0824 1.40806 11.0089 1.27612C12.213 1.64356 13.3163 2.30281 14.2317 3.21825L15.6686 4.65513C15.8516 4.83819 16.1484 4.83819 16.3316 4.65513L17.7686 3.21825C19.2392 1.74756 21.1946 0.937625 23.2744 0.937625C25.3542 0.937625 27.3096 1.74756 28.7802 3.21825C31.8162 6.25419 31.8162 11.1941 28.7802 14.2301L18.347 24.6633C17.0531 25.9573 14.9474 25.9573 13.6534 24.6633L7.23543 18.2454C7.05237 18.0623 6.75555 18.0623 6.57249 18.2454C6.38943 18.4284 6.38943 18.7252 6.57249 18.9083L12.9904 25.3263C13.8202 26.1561 14.9101 26.5709 16.0001 26.5709C17.0901 26.5709 18.1801 26.156 19.0099 25.3263L29.4432 14.8929C30.1155 14.2207 30.6544 13.4649 31.0609 12.6589V14.2537C31.0599 14.2644 31.0594 14.2751 31.0592 14.286C31.0248 16.3157 30.2154 18.2239 28.7802 19.6591L24.456 23.9833C24.2729 24.1664 24.2729 24.4632 24.456 24.6462C24.5476 24.7377 24.6676 24.7836 24.7875 24.7836C24.9074 24.7836 25.0274 24.7378 25.119 24.6462L29.4432 20.322C31.0414 18.7238 31.947 16.6019 31.9959 14.3434C31.9959 14.3231 31.993 8.62275 31.993 8.60019ZM3.21999 3.21819C4.54587 1.89231 6.26574 1.10375 8.11555 0.96125C7.51587 1.88587 7.18949 3.281 7.04199 4.07931C6.73674 4.05787 6.42418 4.16263 6.19137 4.3955L4.39699 6.18988C4.16412 6.42275 4.05937 6.73525 4.0808 7.0405C3.28387 7.18769 1.89212 7.51325 0.967429 8.111C1.10718 6.32606 1.85774 4.58044 3.21999 3.21819ZM7.0753 8.86819C7.03549 8.908 6.98899 8.91394 6.9648 8.91394C6.94062 8.91394 6.89412 8.908 6.8543 8.86819L5.95724 7.97113C5.95718 7.97106 5.95712 7.971 5.95712 7.97094C5.95712 7.97088 5.95699 7.97081 5.95693 7.97081L5.0643 7.07819L5.05987 7.07375C4.99893 7.01281 4.99893 6.91369 5.05987 6.85275L6.85424 5.05837C6.89405 5.01856 6.94055 5.01263 6.96474 5.01263C6.98893 5.01263 7.03537 5.01856 7.07524 5.05837L7.07968 5.06281L8.86524 6.84837L8.86962 6.85275C8.90943 6.89256 8.91537 6.93906 8.91537 6.96325C8.91537 6.98744 8.90943 7.03394 8.86962 7.07375L7.0753 8.86819ZM4.77887 12.7716C4.64305 12.9074 4.52599 12.9674 4.4318 12.9507C4.24137 12.9166 3.91155 12.6051 3.55687 11.8333C3.25999 11.1873 2.74074 10.6681 2.09474 10.3712C1.35568 10.0316 1.03943 9.715 0.983991 9.5215C0.981366 9.49606 0.978741 9.47062 0.976366 9.44512C0.984366 9.36062 1.04412 9.26156 1.15643 9.14919C1.83999 8.46569 3.6773 8.05138 4.56812 7.90788L4.96262 8.30237L4.40137 8.86369C4.2183 9.04675 4.2183 9.34356 4.40137 9.52662C4.49287 9.61819 4.61287 9.66394 4.73287 9.66394C4.85287 9.66394 4.9728 9.61819 5.06437 9.52662L5.62562 8.96531L6.02012 9.35981C5.87668 10.2509 5.46237 12.0881 4.77887 12.7716ZM8.64087 13.0704C8.48087 13.0302 8.31212 13.0772 8.19568 13.1937L7.61437 13.775L7.0798 9.84456C7.29418 9.82206 7.50262 9.73612 7.67574 9.58762L9.45537 13.2741L8.64087 13.0704ZM13.1952 8.19419C13.0787 8.31062 13.0319 8.47962 13.0719 8.63937L13.2755 9.45394L9.58905 7.67431C9.73755 7.50119 9.82349 7.29275 9.84599 7.07837L13.7765 7.61287L13.1952 8.19419ZM11.8349 3.55544C12.6066 3.91006 12.9181 4.23988 12.9522 4.43031C12.9691 4.52481 12.9089 4.64163 12.7731 4.77738C12.0896 5.46094 10.2524 5.87519 9.36143 6.01869L8.96693 5.62419L9.52824 5.06287C9.7113 4.87981 9.7113 4.583 9.52824 4.39994C9.34524 4.21688 9.04837 4.21688 8.8653 4.39994L8.30399 4.96125L7.90949 4.56675C8.05299 3.67581 8.46724 1.83856 9.1508 1.15506C9.28655 1.01931 9.4033 0.959063 9.49787 0.976C9.6883 1.01013 10.0181 1.32156 10.3728 2.09331C10.6696 2.73925 11.1888 3.2585 11.8349 3.55544Z" fill="#CB1B23"/>
<path d="M26.1276 8.35981C26.1276 8.10093 25.9177 7.89106 25.6588 7.89106H19.3459C19.087 7.89106 18.8772 8.10093 18.8772 8.35981C18.8772 8.61868 19.0871 8.82856 19.3459 8.82856H25.6588C25.9177 8.82862 26.1276 8.61875 26.1276 8.35981Z" fill="#CB1B23"/>
<path d="M19.3459 10.4162C19.087 10.4162 18.8772 10.6261 18.8772 10.8849C18.8772 11.1438 19.0871 11.3537 19.3459 11.3537H23.1336C23.3926 11.3537 23.6024 11.1438 23.6024 10.8849C23.6024 10.6261 23.3925 10.4162 23.1336 10.4162H19.3459Z" fill="#CB1B23"/>
<path d="M19.5707 5.99718H18.7023C17.7545 5.99718 16.9834 6.76825 16.9834 7.71606V11.5287C16.9834 12.4766 17.7545 13.2476 18.7023 13.2476H26.3026C27.2503 13.2476 28.0215 12.4766 28.0215 11.5287V7.71606C28.0215 6.76825 27.2503 5.99718 26.3026 5.99718H21.7639C21.505 5.99718 21.2951 6.20706 21.2951 6.46593C21.2951 6.72481 21.505 6.93468 21.7639 6.93468H26.3026C26.7334 6.93468 27.0839 7.28518 27.0839 7.716V11.5287C27.0839 11.9595 26.7334 12.31 26.3026 12.31H18.7023C18.2715 12.31 17.921 11.9595 17.921 11.5287V7.716C17.921 7.28518 18.2715 6.93468 18.7023 6.93468H19.5707C19.8296 6.93468 20.0395 6.72481 20.0395 6.46593C20.0395 6.20706 19.8296 5.99718 19.5707 5.99718Z" fill="#CB1B23"/>
</g>
<defs>
<clipPath id="clip0_281_584">
<rect width="32" height="32" fill="white"/>
</clipPath>
</defs>
</svg>
