<svg width="32" height="32" viewBox="0 0 32 32" fill="none" xmlns="http://www.w3.org/2000/svg">
<path d="M32 7.02806V4.95538C32 3.8805 31.4463 2.91456 30.5187 2.3715C29.5911 1.82844 28.4778 1.81825 27.5405 2.34431L19.4745 6.87113C19.2052 6.27313 18.604 5.8555 17.9068 5.8555H14.0933C13.3961 5.8555 12.7949 6.27306 12.5256 6.87113L8.96175 4.871C8.73606 4.74431 8.45025 4.82463 8.32356 5.05038C8.19688 5.27613 8.27719 5.56188 8.50294 5.68856L12.3746 7.86138V8.96188C11.4798 8.53113 9.87937 7.87581 8.42387 7.87581C8.165 7.87581 7.95512 8.08569 7.95512 8.34456C7.95512 8.60344 8.165 8.81331 8.42387 8.81331C9.94194 8.81331 11.7416 9.6805 12.3746 10.0124V11.4754C11.7424 11.8073 9.94575 12.6741 8.42387 12.6741C8.165 12.6741 7.95512 12.884 7.95512 13.1429C7.95512 13.4018 8.165 13.6116 8.42387 13.6116C9.87944 13.6116 11.4798 12.9563 12.3746 12.5256V13.6261L4.00081 18.3256C3.35694 18.6869 2.59225 18.6799 1.95512 18.3069C1.31787 17.9339 0.9375 17.2704 0.9375 16.5321V14.4594C0.9375 13.5728 1.28275 12.7392 1.90969 12.1122L2.94681 11.0751C3.03475 10.9873 3.08413 10.868 3.08413 10.7437C3.08413 10.6194 3.03475 10.5001 2.94681 10.4123L1.90969 9.37519C1.28275 8.74825 0.9375 7.91463 0.9375 7.02806V4.95538C0.9375 4.21706 1.31788 3.55356 1.955 3.18056C2.59213 2.80756 3.35688 2.80063 4.00069 3.16194L6.58337 4.61138C6.80906 4.73806 7.09487 4.65775 7.22156 4.432C7.34825 4.20625 7.26794 3.9205 7.04219 3.79381L4.45956 2.34431C3.52219 1.81825 2.40887 1.82844 1.48131 2.3715C0.55375 2.91456 0 3.8805 0 4.95538V7.02806C0 8.16506 0.44275 9.23406 1.24681 10.0381L1.95244 10.7438L1.24681 11.4494C0.44275 12.2534 0 13.3224 0 14.4594V16.5321C0 17.607 0.55375 18.5729 1.48131 19.116C1.95325 19.3923 2.47312 19.5306 2.99356 19.5306C3.49606 19.5306 3.99906 19.4016 4.4595 19.1432L11.8979 14.9686C11.6363 15.4655 11.2459 16.0909 10.6728 16.7876C9.37431 18.3659 6.84819 20.6399 2.18819 22.5103C1.9875 22.5908 1.86794 22.7982 1.89887 23.0123C1.92975 23.2263 2.10306 23.3914 2.31838 23.4119L5.87162 23.7504V25.6601C5.87162 25.8115 5.94475 25.9536 6.06794 26.0416C6.1485 26.0991 6.24394 26.1289 6.34037 26.1289C6.39144 26.1289 6.44287 26.1205 6.49244 26.1035C6.58375 26.0722 8.754 25.3167 10.9528 23.6074C12.0396 22.7626 12.9367 21.8329 13.6372 20.8346V29.5744C13.6372 29.7411 13.7259 29.8954 13.87 29.9794C14.0141 30.0633 14.1919 30.0644 14.3371 29.9822L16 29.0399L17.6629 29.9823C17.7346 30.0229 17.8143 30.0432 17.894 30.0432C17.9756 30.0432 18.0571 30.0219 18.13 29.9794C18.2741 29.8954 18.3627 29.7412 18.3627 29.5744V26.3173C18.3627 26.0584 18.1529 25.8486 17.894 25.8486C17.6351 25.8486 17.4252 26.0584 17.4252 26.3173V28.77L16.2311 28.0933C16.0877 28.0121 15.9123 28.0121 15.7689 28.0933L14.5747 28.77V19.2123C15.0964 18.0808 15.3899 16.881 15.4471 15.6319H16.5529C16.6101 16.8809 16.9036 18.0808 17.4252 19.2122V24.1293C17.4252 24.3881 17.6351 24.598 17.894 24.598C18.1529 24.598 18.3627 24.3881 18.3627 24.1293V20.8345C19.0633 21.8328 19.9604 22.7625 21.0472 23.6073C23.246 25.3166 25.4162 26.0721 25.5075 26.1034C25.5571 26.1204 25.6084 26.1288 25.6596 26.1288C25.7561 26.1288 25.8515 26.099 25.932 26.0416C26.0552 25.9536 26.1284 25.8115 26.1284 25.6601V23.7503L29.6816 23.4119C29.8969 23.3914 30.0703 23.2263 30.1011 23.0122C30.132 22.7982 30.0125 22.5908 29.8118 22.5102C25.1518 20.6399 22.6257 18.3658 21.3271 16.7875C20.754 16.0909 20.3637 15.4654 20.102 14.9686L22.7469 16.4529C22.8194 16.4936 22.8982 16.513 22.9759 16.513C23.1399 16.513 23.2991 16.4268 23.3851 16.2736C23.5118 16.0478 23.4315 15.7621 23.2057 15.6354L19.6254 13.6261V12.5256C20.5202 12.9563 22.1206 13.6117 23.5762 13.6117C23.8351 13.6117 24.0449 13.4018 24.0449 13.1429C24.0449 12.8841 23.8351 12.6742 23.5762 12.6742C22.0579 12.6742 20.2582 11.8069 19.6254 11.4751V10.0122C20.2576 9.68025 22.0543 8.81338 23.5762 8.81338C23.8351 8.81338 24.0449 8.6035 24.0449 8.34463C24.0449 8.08575 23.8351 7.87588 23.5762 7.87588C22.1206 7.87588 20.5202 8.53125 19.6254 8.962V7.8615L27.9993 3.16188C28.643 2.80056 29.4077 2.80744 30.0449 3.1805C30.6821 3.55356 31.0625 4.21706 31.0625 4.95538V7.02806C31.0625 7.91469 30.7172 8.74825 30.0903 9.37519L29.0531 10.4123C28.9653 10.5001 28.9159 10.6194 28.9159 10.7437C28.9159 10.868 28.9653 10.9873 29.0531 11.0751L30.0903 12.1122C30.7172 12.7392 31.0625 13.5728 31.0625 14.4594V16.5321C31.0625 17.2704 30.6821 17.9339 30.045 18.3069C29.4079 18.6799 28.6431 18.687 27.9994 18.3256L25.1217 16.7106C24.896 16.584 24.6102 16.6643 24.4836 16.89C24.3569 17.1158 24.4371 17.4015 24.6629 17.5282L27.5405 19.1432C28.001 19.4016 28.5039 19.5306 29.0064 19.5306C29.5268 19.5306 30.0468 19.3923 30.5187 19.116C31.4463 18.5728 32 17.6069 32 16.5321V14.4594C32 13.3224 31.5572 12.2534 30.7533 11.4493L30.0476 10.7437L30.7533 10.0381C31.5572 9.23406 32 8.16506 32 7.02806ZM14.0933 6.793H17.9067C18.3376 6.793 18.688 7.14344 18.688 7.57425V7.59294V7.59431V13.8931V13.8945V13.9088V13.9096V13.9132C18.688 14.344 18.3376 14.6944 17.9067 14.6944H14.0933C13.6624 14.6944 13.312 14.344 13.312 13.9132V13.8946C13.312 13.8941 13.312 13.8936 13.312 13.8931V7.59438C13.312 7.59388 13.312 7.59331 13.312 7.59281V7.57425C13.312 7.14344 13.6624 6.793 14.0933 6.793ZM10.3984 22.8507C9.00312 23.9394 7.59144 24.63 6.80906 24.9681V23.3239C6.80906 23.0823 6.62537 22.8802 6.38475 22.8573L4.21438 22.6506C8.04787 20.8451 10.2454 18.7994 11.4471 17.3216C12.1474 16.4603 12.5935 15.6979 12.8722 15.1214C13.1839 15.4364 13.6161 15.6319 14.0933 15.6319H14.5092C14.3741 18.399 12.9935 20.8258 10.3984 22.8507ZM27.7856 22.6507L25.6152 22.8574C25.3746 22.8803 25.1909 23.0824 25.1909 23.324V24.9687C24.4136 24.6333 23.0148 23.9494 21.6226 22.8671C19.0139 20.8392 17.6262 18.4069 17.4908 15.6319H17.9067C18.3838 15.6319 18.816 15.4364 19.1277 15.1214C19.4064 15.6979 19.8525 16.4603 20.5529 17.3218C21.7546 18.7995 23.9521 20.8451 27.7856 22.6507Z" fill="#CB1B23"/>
</svg>
