<svg width="32" height="32" viewBox="0 0 32 32" fill="none" xmlns="http://www.w3.org/2000/svg">
<g clip-path="url(#clip0_281_605)">
<path d="M22.7332 21.2894C23.1115 20.2678 23.1322 19.504 22.7949 19.0193C22.6295 18.7817 22.2972 18.4986 21.6533 18.4986C21.4567 18.4986 21.2411 18.5247 21.0126 18.5765C20.7601 18.6336 20.6017 18.8846 20.6589 19.1371C20.716 19.3896 20.967 19.548 21.2195 19.4909C21.3803 19.4545 21.5262 19.4361 21.6533 19.4361C21.8453 19.4361 21.9705 19.4761 22.0254 19.5549C22.1359 19.7137 22.149 20.1672 21.854 20.9638C21.6071 21.6306 21.6071 22.365 21.854 23.0317C22.149 23.8283 22.1359 24.2819 22.0254 24.4406C21.9705 24.5195 21.8453 24.5594 21.6533 24.5594C20.6865 24.5594 19.0942 23.5531 18.3627 23.0246V22.4664H19.1567C19.4156 22.4664 19.6254 22.2566 19.6254 21.9977C19.6254 21.7388 19.4156 21.5289 19.1567 21.5289H18.3627V20.9722C18.5669 20.8256 18.9242 20.5784 19.3483 20.3251C19.5705 20.1922 19.643 19.9045 19.5103 19.6822C19.3775 19.46 19.0897 19.3876 18.8675 19.5203C18.5692 19.6984 18.3049 19.8717 18.0957 20.0146C17.9254 19.8176 17.6862 19.6824 17.4158 19.6459V18.2414C17.6124 18.2924 17.8242 18.3211 18.0452 18.3211C18.6937 18.3211 19.4164 18.0796 20.0295 17.4664C21.4494 16.0466 21.1902 14.1016 21.1785 14.0195C21.149 13.8132 20.987 13.6512 20.7807 13.6217C20.7002 13.6102 18.8274 13.3617 17.4158 14.6925V13.3014C19.3894 12.9321 20.8882 11.1974 20.8882 9.11819V8.87131C20.8882 7.98819 21.0927 7.10212 21.4797 6.309L22.1035 5.0305C22.1744 4.88525 22.1654 4.71369 22.0797 4.57656C21.9941 4.4395 21.8439 4.35619 21.6822 4.35619H20.2569V2.86788C20.2569 2.33088 19.82 1.894 19.283 1.894H18.9942V1.73137C18.9941 0.77675 18.2174 0 17.2627 0H14.7373C13.7826 0 13.0059 0.77675 13.0059 1.73144V1.89406H12.717C12.18 1.89406 11.7432 2.33094 11.7432 2.86794V4.36206H10.3178C10.1562 4.36206 10.0059 4.44538 9.9203 4.58244C9.83461 4.7195 9.82561 4.89106 9.89655 5.03631L10.5201 6.31462C10.9072 7.10825 11.1119 7.99431 11.1119 8.87712V9.11831C11.1119 11.1975 12.6106 12.9322 14.5843 13.3015V14.6927C13.1726 13.3619 11.2999 13.6104 11.2194 13.6219C11.0131 13.6514 10.851 13.8134 10.8216 14.0196C10.8099 14.1017 10.5507 16.0467 11.9707 17.4666C12.5839 18.0797 13.3063 18.3213 13.9549 18.3213C14.1759 18.3213 14.3877 18.2925 14.5843 18.2415V19.6461C14.3139 19.6826 14.0747 19.8177 13.9044 20.0147C13.6952 19.8718 13.4309 19.6986 13.1326 19.5204C12.9104 19.3876 12.6226 19.4601 12.4898 19.6824C12.357 19.9046 12.4295 20.1924 12.6518 20.3252C13.0758 20.5785 13.4332 20.8258 13.6374 20.9723V21.5291H12.8434C12.5845 21.5291 12.3747 21.7389 12.3747 21.9978C12.3747 22.2567 12.5845 22.4666 12.8434 22.4666H13.6374V23.0247C12.9058 23.5532 11.3135 24.5596 10.3468 24.5596C10.1548 24.5596 10.0296 24.5196 9.97473 24.4408C9.86417 24.2819 9.85111 23.8284 10.146 23.0319C10.393 22.3651 10.393 21.6307 10.146 20.964C9.85111 20.1673 9.86417 19.7138 9.97473 19.555C10.0296 19.4761 10.1548 19.4362 10.3468 19.4362C10.4739 19.4362 10.6198 19.4546 10.7805 19.491C11.0332 19.5481 11.2841 19.3898 11.3412 19.1373C11.3984 18.8848 11.24 18.6338 10.9875 18.5766C10.759 18.5249 10.5434 18.4987 10.3468 18.4987C9.70292 18.4987 9.37067 18.7819 9.20523 19.0194C8.86792 19.5041 8.88861 20.2679 9.26686 21.2896C9.43605 21.7464 9.43605 22.2496 9.26686 22.7064C8.88861 23.7281 8.86786 24.4918 9.20523 24.9764C9.37061 25.214 9.70286 25.4972 10.3468 25.4972C10.9234 25.4972 11.5897 25.27 12.2143 24.9737L10.3237 27.4595C10.2159 27.6012 10.1977 27.7919 10.2769 27.9515C10.356 28.1111 10.5187 28.212 10.6969 28.212H12.1992L13.0097 29.5628C13.0949 29.7049 13.2481 29.7904 13.4115 29.7904C13.4275 29.7904 13.4435 29.7896 13.4596 29.7879C13.6405 29.7693 13.7944 29.6477 13.8542 29.476L14.5845 27.3827V31.5312C14.5845 31.7901 14.7943 32 15.0532 32H16.9473C17.2062 32 17.416 31.7901 17.416 31.5312V30.3195C17.416 30.0606 17.2062 29.8507 16.9473 29.8507C16.6884 29.8507 16.4785 30.0606 16.4785 30.3195V31.0625H15.522V24.6952L15.6387 24.3607H16.3618L16.4785 24.6952V28.1273C16.4785 28.3861 16.6883 28.596 16.9472 28.596C17.2062 28.596 17.416 28.3861 17.416 28.1273V27.3827L18.1462 29.4759C18.2061 29.6477 18.36 29.7692 18.5409 29.7879C18.557 29.7895 18.573 29.7903 18.5889 29.7903C18.7523 29.7903 18.9055 29.7048 18.9908 29.5627L19.8012 28.2119H21.3036C21.4817 28.2119 21.6444 28.111 21.7236 27.9514C21.8027 27.7919 21.7845 27.6012 21.6767 27.4594L19.7862 24.9737C20.4107 25.2699 21.0771 25.4971 21.6537 25.4971C22.2976 25.4971 22.6299 25.2139 22.7952 24.9764C23.1325 24.4918 23.1118 23.7279 22.7336 22.7062C22.564 22.2494 22.564 21.7463 22.7332 21.2894ZM17.9966 15.4338C18.7494 14.6809 19.7314 14.5469 20.2645 14.5358C20.2533 15.0689 20.1193 16.0509 19.3665 16.8037C18.78 17.39 18.0203 17.4884 17.5097 17.2906C17.3119 16.7799 17.4102 16.0203 17.9966 15.4338ZM14.4902 17.2905C13.9796 17.4884 13.2199 17.39 12.6335 16.8036C11.8807 16.0508 11.7467 15.0689 11.7355 14.5357C12.2686 14.5469 13.2506 14.6809 14.0034 15.4337C14.5899 16.0202 14.688 16.7799 14.4902 17.2905ZM15.5217 13.3751H16.4783V19.6351H15.5217V13.3751ZM20.6371 5.89806C20.188 6.8185 19.9507 7.84662 19.9507 8.87144V9.11831C19.9507 10.8536 18.6119 12.2813 16.9131 12.4249C17.0324 12.19 17.1001 11.9247 17.1001 11.6438V7.35625C17.1001 6.75944 16.9239 6.20331 16.6217 5.73581C16.6675 5.69963 16.7143 5.66475 16.7631 5.63256C17.0991 5.411 17.4902 5.29388 17.894 5.29388H20.9319L20.6371 5.89806ZM19.3193 2.86788V4.35631H17.894C17.5787 4.35631 17.2689 4.40587 16.9737 4.50112V4.25688C16.9737 3.82488 16.8563 3.40762 16.6384 3.04444C16.8607 2.90575 17.1177 2.8315 17.3889 2.8315H19.2829C19.303 2.83156 19.3193 2.84781 19.3193 2.86788ZM13.9434 1.73144C13.9434 1.29369 14.2995 0.9375 14.7373 0.9375H17.2627C17.7005 0.9375 18.0566 1.29369 18.0566 1.73144V1.89406H17.3889C16.8873 1.89406 16.4005 2.05581 15.9999 2.34687C15.5994 2.05587 15.1125 1.89406 14.6109 1.89406H13.9432V1.73144H13.9434ZM12.6807 2.86788C12.6807 2.84781 12.697 2.8315 12.717 2.8315H14.611C15.0126 2.8315 15.3836 2.99369 15.6566 3.28912C15.9015 3.55275 16.0364 3.89644 16.0364 4.25681V5.00406C16.023 5.01469 16.0099 5.02556 15.9967 5.03644C15.4807 4.61513 14.8225 4.36194 14.106 4.36194H12.6807L12.6807 2.86788ZM12.0493 9.11825V8.87706C12.0493 7.85269 11.8119 6.82444 11.3627 5.90356L11.068 5.2995H14.1059C15.24 5.2995 16.1625 6.22212 16.1625 7.35619V11.6437C16.1625 12.0814 15.8064 12.4376 15.3686 12.4376C13.5384 12.4376 12.0493 10.9486 12.0493 9.11825ZM14.5747 20.7288C14.5747 20.6427 14.6447 20.5726 14.7309 20.5726H17.269C17.3552 20.5726 17.4252 20.6427 17.4252 20.7288V20.7352V23.2606V23.2669C17.4252 23.3531 17.3552 23.4232 17.269 23.4232H14.7309C14.6447 23.4232 14.5747 23.3531 14.5747 23.2669V23.2606V20.7352V20.7288ZM13.2984 28.2222L12.8664 27.502C12.7817 27.3608 12.629 27.2744 12.4644 27.2744H11.642L14.0437 24.1167C14.2112 24.2524 14.4195 24.3391 14.647 24.3564L13.2984 28.2222ZM19.5355 27.2744C19.3709 27.2744 19.2183 27.3608 19.1335 27.5019L18.7015 28.2221L17.3529 24.3564C17.5804 24.339 17.7887 24.2524 17.9562 24.1166L20.3579 27.2744H19.5355Z" fill="#CB1B23"/>
</g>
<defs>
<clipPath id="clip0_281_605">
<rect width="32" height="32" fill="white"/>
</clipPath>
</defs>
</svg>
